<?xml version="1.0" encoding="UTF-8" standalone="no"?>
<!DOCTYPE svg PUBLIC "-//W3C//DTD SVG 1.1//EN"
 "http://www.w3.org/Graphics/SVG/1.1/DTD/svg11.dtd">
<!-- Generated by graphviz version 2.40.1 (20161225.0304)
 -->
<!-- Title: G Pages: 1 -->
<svg width="352pt" height="177pt"
 viewBox="0.00 0.00 352.00 177.00" xmlns="http://www.w3.org/2000/svg" xmlns:xlink="http://www.w3.org/1999/xlink">
<g id="graph0" class="graph" transform="scale(1 1) rotate(0) translate(4 173)">
<title>G</title>
<polygon fill="#ffffff" stroke="transparent" points="-4,4 -4,-173 348,-173 348,4 -4,4"/>
<!-- list -->
<g id="node1" class="node">
<title>list</title>
<polygon fill="#ffffff" stroke="transparent" points="260.5,-55 32.5,-55 32.5,0 260.5,0 260.5,-55"/>
<polygon fill="none" stroke="#000000" points="40.5,-3.5 40.5,-50.5 72.5,-50.5 72.5,-3.5 40.5,-3.5"/>
<text text-anchor="start" x="46.5" y="-18.9" font-family="PT Mono" font-size="32.00" fill="#000000">1</text>
<polygon fill="none" stroke="#000000" points="72.5,-3.5 72.5,-50.5 104.5,-50.5 104.5,-3.5 72.5,-3.5"/>
<text text-anchor="start" x="78.5" y="-18.9" font-family="PT Mono" font-size="32.00" fill="#000000">2</text>
<polygon fill="none" stroke="#000000" points="104.5,-3.5 104.5,-50.5 136.5,-50.5 136.5,-3.5 104.5,-3.5"/>
<text text-anchor="start" x="110.5" y="-18.9" font-family="PT Mono" font-size="32.00" fill="#000000">3</text>
<polygon fill="none" stroke="#000000" points="136.5,-3.5 136.5,-50.5 168.5,-50.5 168.5,-3.5 136.5,-3.5"/>
<text text-anchor="start" x="142.5" y="-18.9" font-family="PT Mono" font-size="32.00" fill="#000000">5</text>
<polygon fill="#ffa500" stroke="transparent" points="168.5,-3.5 168.5,-50.5 200.5,-50.5 200.5,-3.5 168.5,-3.5"/>
<polygon fill="none" stroke="#000000" points="168.5,-3.5 168.5,-50.5 200.5,-50.5 200.5,-3.5 168.5,-3.5"/>
<text text-anchor="start" x="174.5" y="-18.9" font-family="PT Mono" font-size="32.00" fill="#000000">7</text>
<polygon fill="#ffff00" stroke="transparent" points="200.5,-3.5 200.5,-50.5 252.5,-50.5 252.5,-3.5 200.5,-3.5"/>
<polygon fill="none" stroke="#000000" points="200.5,-3.5 200.5,-50.5 252.5,-50.5 252.5,-3.5 200.5,-3.5"/>
<text text-anchor="start" x="206.5" y="-18.9" font-family="PT Mono" font-size="32.00" fill="#000000">11</text>
</g>
<!-- last -->
<g id="node2" class="node">
<title>last</title>
<polygon fill="#ffff00" stroke="#000000" points="344,-169 249,-169 249,-91 344,-91 344,-169"/>
<text text-anchor="middle" x="296.5" y="-139.4" font-family="PT Mono" font-size="32.00" fill="#000000">&#45;1st</text>
<text text-anchor="middle" x="296.5" y="-104.4" font-family="PT Mono" font-size="32.00" fill="#000000">last</text>
</g>
<!-- last&#45;&gt;list -->
<g id="edge1" class="edge">
<title>last&#45;&gt;list:last</title>
<path fill="none" stroke="#000000" d="M248.6484,-96.3429C238.747,-86.2076 230.4391,-74.131 227.5715,-60.6015"/>
<polygon fill="#000000" stroke="#000000" points="231.0354,-60.075 226.5,-50.5 224.0745,-60.8134 231.0354,-60.075"/>
</g>
<!-- penultimate -->
<g id="node3" class="node">
<title>penultimate</title>
<polygon fill="#ffa500" stroke="#000000" points="231,-169 0,-169 0,-91 231,-91 231,-169"/>
<text text-anchor="middle" x="115.5" y="-139.4" font-family="PT Mono" font-size="32.00" fill="#000000">&#45;2nd</text>
<text text-anchor="middle" x="115.5" y="-104.4" font-family="PT Mono" font-size="32.00" fill="#000000">penultimate</text>
</g>
<!-- penultimate&#45;&gt;list -->
<g id="edge2" class="edge">
<title>penultimate&#45;&gt;list:penultimate</title>
<path fill="none" stroke="#000000" d="M167.4438,-90.9335C175.0259,-81.9809 181.0825,-71.7633 183.4378,-60.5749"/>
<polygon fill="#000000" stroke="#000000" points="186.9321,-60.8119 184.5,-50.5 179.9707,-60.0779 186.9321,-60.8119"/>
</g>
</g>
</svg>
