<?xml version="1.0" encoding="UTF-8" standalone="no"?>
<!DOCTYPE svg PUBLIC "-//W3C//DTD SVG 1.1//EN"
 "http://www.w3.org/Graphics/SVG/1.1/DTD/svg11.dtd">
<!-- Generated by graphviz version 2.40.1 (20161225.0304)
 -->
<!-- Title: G Pages: 1 -->
<svg width="268pt" height="185pt"
 viewBox="0.00 0.00 268.00 185.00" xmlns="http://www.w3.org/2000/svg" xmlns:xlink="http://www.w3.org/1999/xlink">
<g id="graph0" class="graph" transform="scale(1 1) rotate(0) translate(4 181)">
<title>G</title>
<polygon fill="#ffffff" stroke="transparent" points="-4,4 -4,-181 264,-181 264,4 -4,4"/>
<!-- list -->
<g id="node1" class="node">
<title>list</title>
<polygon fill="#ffffff" stroke="transparent" points="260,-177 0,-177 0,0 260,0 260,-177"/>
<polygon fill="#ffff99" stroke="transparent" points="28,-144.5 28,-172.5 60,-172.5 60,-144.5 28,-144.5"/>
<text text-anchor="start" x="39" y="-154.7" font-family="PT Mono" font-size="16.00" fill="#999999">0</text>
<text text-anchor="start" x="71" y="-154.7" font-family="PT Mono" font-size="16.00" fill="#999999">1</text>
<text text-anchor="start" x="103" y="-154.7" font-family="PT Mono" font-size="16.00" fill="#999999">2</text>
<text text-anchor="start" x="135" y="-154.7" font-family="PT Mono" font-size="16.00" fill="#999999">3</text>
<text text-anchor="start" x="167" y="-154.7" font-family="PT Mono" font-size="16.00" fill="#999999">4</text>
<text text-anchor="start" x="199" y="-154.7" font-family="PT Mono" font-size="16.00" fill="#999999">5</text>
<text text-anchor="start" x="231" y="-154.7" font-family="PT Mono" font-size="16.00" fill="#999999">6</text>
<text text-anchor="start" x="13" y="-117.2" font-family="PT Mono" font-size="16.00" fill="#999999">0</text>
<polygon fill="#ffff99" stroke="transparent" points="28,-97.5 28,-144.5 60,-144.5 60,-97.5 28,-97.5"/>
<polygon fill="none" stroke="#000000" points="28,-97.5 28,-144.5 60,-144.5 60,-97.5 28,-97.5"/>
<text text-anchor="start" x="34" y="-112.9" font-family="PT Mono" font-size="32.00" fill="#000000">A</text>
<polygon fill="none" stroke="#000000" points="60,-97.5 60,-144.5 92,-144.5 92,-97.5 60,-97.5"/>
<text text-anchor="start" x="66" y="-112.9" font-family="PT Mono" font-size="32.00" fill="#000000">l</text>
<polygon fill="none" stroke="#000000" points="92,-97.5 92,-144.5 124,-144.5 124,-97.5 92,-97.5"/>
<text text-anchor="start" x="98" y="-112.9" font-family="PT Mono" font-size="32.00" fill="#000000">i</text>
<polygon fill="none" stroke="#000000" points="124,-97.5 124,-144.5 156,-144.5 156,-97.5 124,-97.5"/>
<text text-anchor="start" x="130" y="-112.9" font-family="PT Mono" font-size="32.00" fill="#000000">c</text>
<polygon fill="none" stroke="#000000" points="156,-97.5 156,-144.5 188,-144.5 188,-97.5 156,-97.5"/>
<text text-anchor="start" x="162" y="-112.9" font-family="PT Mono" font-size="32.00" fill="#000000">e</text>
<text text-anchor="start" x="13" y="-70.2" font-family="PT Mono" font-size="16.00" fill="#999999">1</text>
<polygon fill="#ffff99" stroke="transparent" points="28,-50.5 28,-97.5 60,-97.5 60,-50.5 28,-50.5"/>
<polygon fill="none" stroke="#000000" points="28,-50.5 28,-97.5 60,-97.5 60,-50.5 28,-50.5"/>
<text text-anchor="start" x="34" y="-65.9" font-family="PT Mono" font-size="32.00" fill="#000000">B</text>
<polygon fill="none" stroke="#000000" points="60,-50.5 60,-97.5 92,-97.5 92,-50.5 60,-50.5"/>
<text text-anchor="start" x="66" y="-65.9" font-family="PT Mono" font-size="32.00" fill="#000000">o</text>
<polygon fill="none" stroke="#000000" points="92,-50.5 92,-97.5 124,-97.5 124,-50.5 92,-50.5"/>
<text text-anchor="start" x="98" y="-65.9" font-family="PT Mono" font-size="32.00" fill="#000000">b</text>
<polygon fill="#ccffff" stroke="transparent" points="8,-3.5 8,-50.5 28,-50.5 28,-3.5 8,-3.5"/>
<text text-anchor="start" x="13" y="-23.2" font-family="PT Mono" font-size="16.00" fill="#999999">2</text>
<polygon fill="#00ee00" stroke="transparent" points="28,-3.5 28,-50.5 60,-50.5 60,-3.5 28,-3.5"/>
<polygon fill="none" stroke="#000000" points="28,-3.5 28,-50.5 60,-50.5 60,-3.5 28,-3.5"/>
<text text-anchor="start" x="34" y="-18.9" font-family="PT Mono" font-size="32.00" fill="#000000">C</text>
<polygon fill="#ccffff" stroke="transparent" points="60,-3.5 60,-50.5 92,-50.5 92,-3.5 60,-3.5"/>
<polygon fill="none" stroke="#000000" points="60,-3.5 60,-50.5 92,-50.5 92,-3.5 60,-3.5"/>
<text text-anchor="start" x="66" y="-18.9" font-family="PT Mono" font-size="32.00" fill="#000000">h</text>
<polygon fill="#ccffff" stroke="transparent" points="92,-3.5 92,-50.5 124,-50.5 124,-3.5 92,-3.5"/>
<polygon fill="none" stroke="#000000" points="92,-3.5 92,-50.5 124,-50.5 124,-3.5 92,-3.5"/>
<text text-anchor="start" x="98" y="-18.9" font-family="PT Mono" font-size="32.00" fill="#000000">a</text>
<polygon fill="#ccffff" stroke="transparent" points="124,-3.5 124,-50.5 156,-50.5 156,-3.5 124,-3.5"/>
<polygon fill="none" stroke="#000000" points="124,-3.5 124,-50.5 156,-50.5 156,-3.5 124,-3.5"/>
<text text-anchor="start" x="130" y="-18.9" font-family="PT Mono" font-size="32.00" fill="#000000">r</text>
<polygon fill="#ccffff" stroke="transparent" points="156,-3.5 156,-50.5 188,-50.5 188,-3.5 156,-3.5"/>
<polygon fill="none" stroke="#000000" points="156,-3.5 156,-50.5 188,-50.5 188,-3.5 156,-3.5"/>
<text text-anchor="start" x="162" y="-18.9" font-family="PT Mono" font-size="32.00" fill="#000000">l</text>
<polygon fill="#ccffff" stroke="transparent" points="188,-3.5 188,-50.5 220,-50.5 220,-3.5 188,-3.5"/>
<polygon fill="none" stroke="#000000" points="188,-3.5 188,-50.5 220,-50.5 220,-3.5 188,-3.5"/>
<text text-anchor="start" x="194" y="-18.9" font-family="PT Mono" font-size="32.00" fill="#000000">i</text>
<polygon fill="#ccffff" stroke="transparent" points="220,-3.5 220,-50.5 252,-50.5 252,-3.5 220,-3.5"/>
<polygon fill="none" stroke="#000000" points="220,-3.5 220,-50.5 252,-50.5 252,-3.5 220,-3.5"/>
<text text-anchor="start" x="226" y="-18.9" font-family="PT Mono" font-size="32.00" fill="#000000">e</text>
</g>
</g>
</svg>
