<?xml version="1.0" encoding="UTF-8" standalone="no"?>
<!DOCTYPE svg PUBLIC "-//W3C//DTD SVG 1.1//EN"
 "http://www.w3.org/Graphics/SVG/1.1/DTD/svg11.dtd">
<!-- Generated by graphviz version 2.40.1 (20161225.0304)
 -->
<!-- Title: G Pages: 1 -->
<svg width="496pt" height="221pt"
 viewBox="0.00 0.00 495.50 221.00" xmlns="http://www.w3.org/2000/svg" xmlns:xlink="http://www.w3.org/1999/xlink">
<g id="graph0" class="graph" transform="scale(1 1) rotate(0) translate(4 217)">
<title>G</title>
<polygon fill="#ffffff" stroke="transparent" points="-4,4 -4,-217 491.5,-217 491.5,4 -4,4"/>
<!-- list -->
<g id="node1" class="node">
<title>list</title>
<polygon fill="#ffffff" stroke="transparent" points="321,-134 86,-134 86,-79 321,-79 321,-134"/>
<polygon fill="none" stroke="#000000" points="94.5,-82.5 94.5,-129.5 126.5,-129.5 126.5,-82.5 94.5,-82.5"/>
<text text-anchor="start" x="100.5" y="-97.9" font-family="PT Mono" font-size="32.00" fill="#000000"> </text>
<polygon fill="none" stroke="#000000" points="126.5,-82.5 126.5,-129.5 158.5,-129.5 158.5,-82.5 126.5,-82.5"/>
<text text-anchor="start" x="132.5" y="-97.9" font-family="PT Mono" font-size="32.00" fill="#000000"> </text>
<polygon fill="none" stroke="#000000" points="158.5,-82.5 158.5,-129.5 190.5,-129.5 190.5,-82.5 158.5,-82.5"/>
<text text-anchor="start" x="164.5" y="-97.9" font-family="PT Mono" font-size="32.00" fill="#000000"> </text>
<polygon fill="none" stroke="#000000" points="190.5,-82.5 190.5,-129.5 222.5,-129.5 222.5,-82.5 190.5,-82.5"/>
<text text-anchor="start" x="196.5" y="-97.9" font-family="PT Mono" font-size="32.00" fill="#000000"> </text>
<polygon fill="none" stroke="#000000" points="222.5,-82.5 222.5,-129.5 313.5,-129.5 313.5,-82.5 222.5,-82.5"/>
<text text-anchor="start" x="228.5" y="-97.9" font-family="PT Mono" font-size="32.00" fill="#000000">last</text>
</g>
<!-- del -->
<g id="node5" class="node">
<title>del</title>
<path fill="#fae3a2" stroke="#000000" d="M63,-43C63,-43 12,-43 12,-43 6,-43 0,-37 0,-31 0,-31 0,-12 0,-12 0,-6 6,0 12,0 12,0 63,0 63,0 69,0 75,-6 75,-12 75,-12 75,-31 75,-31 75,-37 69,-43 63,-43"/>
<text text-anchor="middle" x="37.5" y="-13.4" font-family="PT Mono" font-size="32.00" fill="#000000">del</text>
</g>
<!-- list&#45;&gt;del -->
<g id="edge5" class="edge">
<title>list:middle&#45;&gt;del</title>
<path fill="none" stroke="#000000" d="M174.5,-82.5C174.5,-38.8171 124.3632,-60.8641 84.5,-43 84.4053,-42.9576 84.3105,-42.9151 84.2157,-42.8726"/>
<polygon fill="#000000" stroke="#000000" points="85.7417,-39.7213 75.1868,-38.8016 82.8644,-46.1027 85.7417,-39.7213"/>
</g>
<!-- pop -->
<g id="node6" class="node">
<title>pop</title>
<path fill="#fae3a2" stroke="#000000" d="M309,-43C309,-43 258,-43 258,-43 252,-43 246,-37 246,-31 246,-31 246,-12 246,-12 246,-6 252,0 258,0 258,0 309,0 309,0 315,0 321,-6 321,-12 321,-12 321,-31 321,-31 321,-37 315,-43 309,-43"/>
<text text-anchor="middle" x="283.5" y="-13.4" font-family="PT Mono" font-size="32.00" fill="#000000">pop</text>
</g>
<!-- list&#45;&gt;pop -->
<g id="edge3" class="edge">
<title>list:last&#45;&gt;pop</title>
<path fill="none" stroke="#000000" d="M268.5,-82.5C268.5,-72.7291 270.3372,-62.3259 272.7258,-52.9298"/>
<polygon fill="#000000" stroke="#000000" points="276.122,-53.7817 275.473,-43.2068 269.3857,-51.8783 276.122,-53.7817"/>
</g>
<!-- list&#45;&gt;pop -->
<g id="edge6" class="edge">
<title>list:middle&#45;&gt;pop</title>
<path fill="none" stroke="#000000" d="M174.5,-82.5C174.5,-74.8847 207.3175,-57.2607 236.9383,-42.9046"/>
<polygon fill="#000000" stroke="#000000" points="238.4821,-46.0459 245.9884,-38.5688 235.4577,-39.733 238.4821,-46.0459"/>
</g>
<!-- remove -->
<g id="node7" class="node">
<title>remove</title>
<path fill="#fae3a2" stroke="#000000" d="M215.5,-43C215.5,-43 105.5,-43 105.5,-43 99.5,-43 93.5,-37 93.5,-31 93.5,-31 93.5,-12 93.5,-12 93.5,-6 99.5,0 105.5,0 105.5,0 215.5,0 215.5,0 221.5,0 227.5,-6 227.5,-12 227.5,-12 227.5,-31 227.5,-31 227.5,-37 221.5,-43 215.5,-43"/>
<text text-anchor="middle" x="160.5" y="-13.4" font-family="PT Mono" font-size="32.00" fill="#000000">remove</text>
</g>
<!-- list&#45;&gt;remove -->
<g id="edge7" class="edge">
<title>list:middle&#45;&gt;remove</title>
<path fill="none" stroke="#000000" d="M174.5,-82.5C174.5,-72.7651 172.7852,-62.3727 170.556,-52.9754"/>
<polygon fill="#000000" stroke="#000000" points="173.925,-52.0247 167.9918,-43.247 167.1562,-53.8088 173.925,-52.0247"/>
</g>
<!-- append -->
<g id="node2" class="node">
<title>append</title>
<path fill="#d0faa2" stroke="#000000" d="M323.5,-213C323.5,-213 213.5,-213 213.5,-213 207.5,-213 201.5,-207 201.5,-201 201.5,-201 201.5,-182 201.5,-182 201.5,-176 207.5,-170 213.5,-170 213.5,-170 323.5,-170 323.5,-170 329.5,-170 335.5,-176 335.5,-182 335.5,-182 335.5,-201 335.5,-201 335.5,-207 329.5,-213 323.5,-213"/>
<text text-anchor="middle" x="268.5" y="-183.4" font-family="PT Mono" font-size="32.00" fill="#000000">append</text>
</g>
<!-- append&#45;&gt;list -->
<g id="edge1" class="edge">
<title>append&#45;&gt;list:last</title>
<path fill="none" stroke="#000000" d="M268.5,-169.9801C268.5,-161.0341 268.5,-150.3054 268.5,-139.8239"/>
<polygon fill="#000000" stroke="#000000" points="272.0001,-139.5 268.5,-129.5 265.0001,-139.5 272.0001,-139.5"/>
</g>
<!-- extend -->
<g id="node3" class="node">
<title>extend</title>
<path fill="#d0faa2" stroke="#000000" d="M475.5,-213C475.5,-213 365.5,-213 365.5,-213 359.5,-213 353.5,-207 353.5,-201 353.5,-201 353.5,-182 353.5,-182 353.5,-176 359.5,-170 365.5,-170 365.5,-170 475.5,-170 475.5,-170 481.5,-170 487.5,-176 487.5,-182 487.5,-182 487.5,-201 487.5,-201 487.5,-207 481.5,-213 475.5,-213"/>
<text text-anchor="middle" x="420.5" y="-183.4" font-family="PT Mono" font-size="32.00" fill="#000000">extend</text>
</g>
<!-- extend&#45;&gt;list -->
<g id="edge2" class="edge">
<title>extend&#45;&gt;list:last</title>
<path fill="none" stroke="#000000" d="M406.7399,-169.7986C390.2529,-146.5112 360.2529,-112.0739 323.9121,-106.327"/>
<polygon fill="#000000" stroke="#000000" points="323.7458,-102.8029 313.5,-105.5 323.1914,-109.7809 323.7458,-102.8029"/>
</g>
<!-- insert -->
<g id="node4" class="node">
<title>insert</title>
<path fill="#d0faa2" stroke="#000000" d="M171.5,-213C171.5,-213 61.5,-213 61.5,-213 55.5,-213 49.5,-207 49.5,-201 49.5,-201 49.5,-182 49.5,-182 49.5,-176 55.5,-170 61.5,-170 61.5,-170 171.5,-170 171.5,-170 177.5,-170 183.5,-176 183.5,-182 183.5,-182 183.5,-201 183.5,-201 183.5,-207 177.5,-213 171.5,-213"/>
<text text-anchor="middle" x="116.5" y="-183.4" font-family="PT Mono" font-size="32.00" fill="#000000">insert</text>
</g>
<!-- insert&#45;&gt;list -->
<g id="edge4" class="edge">
<title>insert&#45;&gt;list:middle</title>
<path fill="none" stroke="#000000" d="M151.5769,-169.8247C161.2149,-161.6311 169.9153,-151.3559 173.1569,-139.4202"/>
<polygon fill="#000000" stroke="#000000" points="176.6267,-139.8792 174.5,-129.5 169.6899,-138.94 176.6267,-139.8792"/>
</g>
</g>
</svg>
