<?xml version="1.0" encoding="UTF-8" standalone="no"?>
<!DOCTYPE svg PUBLIC "-//W3C//DTD SVG 1.1//EN"
 "http://www.w3.org/Graphics/SVG/1.1/DTD/svg11.dtd">
<!-- Generated by graphviz version 2.40.1 (20161225.0304)
 -->
<!-- Title: G Pages: 1 -->
<svg width="296pt" height="52pt"
 viewBox="0.00 0.00 296.00 52.00" xmlns="http://www.w3.org/2000/svg" xmlns:xlink="http://www.w3.org/1999/xlink">
<g id="graph0" class="graph" transform="scale(1 1) rotate(0) translate(4 48)">
<title>G</title>
<polygon fill="#ffffff" stroke="transparent" points="-4,4 -4,-48 292,-48 292,4 -4,4"/>
<!-- string -->
<g id="node1" class="node">
<title>string</title>
<polygon fill="none" stroke="#000000" points="0,-.5 0,-43.5 288,-43.5 288,-.5 0,-.5"/>
<text text-anchor="middle" x="18" y="-13.9" font-family="PT Mono" font-size="32.00" fill="#000000">0</text>
<polyline fill="none" stroke="#000000" points="36,-.5 36,-43.5 "/>
<text text-anchor="middle" x="54" y="-13.9" font-family="PT Mono" font-size="32.00" fill="#000000">1</text>
<polyline fill="none" stroke="#000000" points="72,-.5 72,-43.5 "/>
<text text-anchor="middle" x="90" y="-13.9" font-family="PT Mono" font-size="32.00" fill="#000000">2</text>
<polyline fill="none" stroke="#000000" points="108,-.5 108,-43.5 "/>
<text text-anchor="middle" x="126" y="-13.9" font-family="PT Mono" font-size="32.00" fill="#000000">3</text>
<polyline fill="none" stroke="#000000" points="144,-.5 144,-43.5 "/>
<text text-anchor="middle" x="162" y="-13.9" font-family="PT Mono" font-size="32.00" fill="#000000">4</text>
<polyline fill="none" stroke="#000000" points="180,-.5 180,-43.5 "/>
<text text-anchor="middle" x="198" y="-13.9" font-family="PT Mono" font-size="32.00" fill="#000000">5</text>
<polyline fill="none" stroke="#000000" points="216,-.5 216,-43.5 "/>
<text text-anchor="middle" x="234" y="-13.9" font-family="PT Mono" font-size="32.00" fill="#000000">6</text>
<polyline fill="none" stroke="#000000" points="252,-.5 252,-43.5 "/>
<text text-anchor="middle" x="270" y="-13.9" font-family="PT Mono" font-size="32.00" fill="#000000">→</text>
</g>
</g>
</svg>
