<?xml version="1.0" encoding="UTF-8" standalone="no"?>
<!DOCTYPE svg PUBLIC "-//W3C//DTD SVG 1.1//EN"
 "http://www.w3.org/Graphics/SVG/1.1/DTD/svg11.dtd">
<!-- Generated by graphviz version 2.40.1 (20161225.0304)
 -->
<!-- Title: G Pages: 1 -->
<svg width="236pt" height="142pt"
 viewBox="0.00 0.00 236.00 142.00" xmlns="http://www.w3.org/2000/svg" xmlns:xlink="http://www.w3.org/1999/xlink">
<g id="graph0" class="graph" transform="scale(1 1) rotate(0) translate(4 138)">
<title>G</title>
<polygon fill="#ffffff" stroke="transparent" points="-4,4 -4,-138 232,-138 232,4 -4,4"/>
<!-- list -->
<g id="node1" class="node">
<title>list</title>
<polygon fill="#ffffff" stroke="transparent" points="228,-55 0,-55 0,0 228,0 228,-55"/>
<polygon fill="none" stroke="#000000" points="8,-3.5 8,-50.5 40,-50.5 40,-3.5 8,-3.5"/>
<text text-anchor="start" x="14" y="-18.9" font-family="PT Mono" font-size="32.00" fill="#000000">1</text>
<polygon fill="#ffff00" stroke="transparent" points="40,-3.5 40,-50.5 72,-50.5 72,-3.5 40,-3.5"/>
<polygon fill="none" stroke="#000000" points="40,-3.5 40,-50.5 72,-50.5 72,-3.5 40,-3.5"/>
<text text-anchor="start" x="46" y="-18.9" font-family="PT Mono" font-size="32.00" fill="#000000">2</text>
<polygon fill="#ffff00" stroke="transparent" points="72,-3.5 72,-50.5 104,-50.5 104,-3.5 72,-3.5"/>
<polygon fill="none" stroke="#000000" points="72,-3.5 72,-50.5 104,-50.5 104,-3.5 72,-3.5"/>
<text text-anchor="start" x="78" y="-18.9" font-family="PT Mono" font-size="32.00" fill="#000000">3</text>
<polygon fill="#ffff00" stroke="transparent" points="104,-3.5 104,-50.5 136,-50.5 136,-3.5 104,-3.5"/>
<polygon fill="none" stroke="#000000" points="104,-3.5 104,-50.5 136,-50.5 136,-3.5 104,-3.5"/>
<text text-anchor="start" x="110" y="-18.9" font-family="PT Mono" font-size="32.00" fill="#000000">5</text>
<polygon fill="#ffff00" stroke="transparent" points="136,-3.5 136,-50.5 168,-50.5 168,-3.5 136,-3.5"/>
<polygon fill="none" stroke="#000000" points="136,-3.5 136,-50.5 168,-50.5 168,-3.5 136,-3.5"/>
<text text-anchor="start" x="142" y="-18.9" font-family="PT Mono" font-size="32.00" fill="#000000">7</text>
<polygon fill="#ffff00" stroke="transparent" points="168,-3.5 168,-50.5 220,-50.5 220,-3.5 168,-3.5"/>
<polygon fill="none" stroke="#000000" points="168,-3.5 168,-50.5 220,-50.5 220,-3.5 168,-3.5"/>
<text text-anchor="start" x="174" y="-18.9" font-family="PT Mono" font-size="32.00" fill="#000000">11</text>
</g>
<!-- include -->
<g id="node2" class="node">
<title>include</title>
<polygon fill="#ffff00" stroke="#000000" points="84,-134 28,-134 28,-91 84,-91 84,-134"/>
<text text-anchor="middle" x="56" y="-104.4" font-family="PT Mono" font-size="32.00" fill="#000000">1:</text>
</g>
<!-- include&#45;&gt;list -->
<g id="edge1" class="edge">
<title>include&#45;&gt;list:p1</title>
<path fill="none" stroke="#000000" d="M56,-90.9801C56,-82.0341 56,-71.3054 56,-60.8239"/>
<polygon fill="#000000" stroke="#000000" points="59.5001,-60.5 56,-50.5 52.5001,-60.5 59.5001,-60.5"/>
</g>
</g>
</svg>
