<?xml version="1.0" encoding="UTF-8" standalone="no"?>
<!DOCTYPE svg PUBLIC "-//W3C//DTD SVG 1.1//EN"
 "http://www.w3.org/Graphics/SVG/1.1/DTD/svg11.dtd">
<!-- Generated by graphviz version 2.40.1 (20161225.0304)
 -->
<!-- Title: G Pages: 1 -->
<svg width="250pt" height="177pt"
 viewBox="0.00 0.00 249.50 177.00" xmlns="http://www.w3.org/2000/svg" xmlns:xlink="http://www.w3.org/1999/xlink">
<g id="graph0" class="graph" transform="scale(1 1) rotate(0) translate(4 173)">
<title>G</title>
<polygon fill="#ffffff" stroke="transparent" points="-4,4 -4,-173 245.5,-173 245.5,4 -4,4"/>
<!-- list -->
<g id="node1" class="node">
<title>list</title>
<polygon fill="none" stroke="#000000" points="8,-3.5 8,-50.5 40,-50.5 40,-3.5 8,-3.5"/>
<text text-anchor="start" x="14" y="-18.9" font-family="PT Mono" font-size="32.00" fill="#000000">1</text>
<polygon fill="none" stroke="#000000" points="40,-3.5 40,-50.5 72,-50.5 72,-3.5 40,-3.5"/>
<text text-anchor="start" x="46" y="-18.9" font-family="PT Mono" font-size="32.00" fill="#000000">2</text>
<polygon fill="none" stroke="#000000" points="72,-3.5 72,-50.5 104,-50.5 104,-3.5 72,-3.5"/>
<text text-anchor="start" x="78" y="-18.9" font-family="PT Mono" font-size="32.00" fill="#000000">3</text>
<polygon fill="none" stroke="#000000" points="104,-3.5 104,-50.5 136,-50.5 136,-3.5 104,-3.5"/>
<text text-anchor="start" x="110" y="-18.9" font-family="PT Mono" font-size="32.00" fill="#000000">5</text>
<polygon fill="none" stroke="#000000" points="136,-3.5 136,-50.5 168,-50.5 168,-3.5 136,-3.5"/>
<text text-anchor="start" x="142" y="-18.9" font-family="PT Mono" font-size="32.00" fill="#000000">7</text>
<polygon fill="#ffff00" stroke="transparent" points="168,-3.5 168,-50.5 220,-50.5 220,-3.5 168,-3.5"/>
<polygon fill="none" stroke="#000000" points="168,-3.5 168,-50.5 220,-50.5 220,-3.5 168,-3.5"/>
<text text-anchor="start" x="174" y="-18.9" font-family="PT Mono" font-size="32.00" fill="#000000">11</text>
</g>
<!-- last -->
<g id="node2" class="node">
<title>last</title>
<polygon fill="#ffff00" stroke="#000000" points="241.5,-169 146.5,-169 146.5,-91 241.5,-91 241.5,-169"/>
<text text-anchor="middle" x="194" y="-139.4" font-family="PT Mono" font-size="32.00" fill="#000000">&#45;1st</text>
<text text-anchor="middle" x="194" y="-104.4" font-family="PT Mono" font-size="32.00" fill="#000000">last</text>
</g>
<!-- last&#45;&gt;list -->
<g id="edge1" class="edge">
<title>last&#45;&gt;list:last</title>
<path fill="none" stroke="#000000" d="M194,-90.7768C194,-81.1495 194,-70.6829 194,-60.5197"/>
<polygon fill="#000000" stroke="#000000" points="197.5001,-60.5 194,-50.5 190.5001,-60.5 197.5001,-60.5"/>
</g>
</g>
</svg>
