<?xml version="1.0" encoding="UTF-8" standalone="no"?>
<!DOCTYPE svg PUBLIC "-//W3C//DTD SVG 1.1//EN"
 "http://www.w3.org/Graphics/SVG/1.1/DTD/svg11.dtd">
<!-- Generated by graphviz version 2.40.1 (20161225.0304)
 -->
<!-- Title: G Pages: 1 -->
<svg width="250pt" height="142pt"
 viewBox="0.00 0.00 249.50 142.00" xmlns="http://www.w3.org/2000/svg" xmlns:xlink="http://www.w3.org/1999/xlink">
<g id="graph0" class="graph" transform="scale(1 1) rotate(0) translate(4 138)">
<title>G</title>
<polygon fill="#ffffff" stroke="transparent" points="-4,4 -4,-138 245.5,-138 245.5,4 -4,4"/>
<!-- list -->
<g id="node1" class="node">
<title>list</title>
<polygon fill="#ffffff" stroke="transparent" points="241.5,-55 13.5,-55 13.5,0 241.5,0 241.5,-55"/>
<polygon fill="#7fffd4" stroke="transparent" points="21.5,-3.5 21.5,-50.5 53.5,-50.5 53.5,-3.5 21.5,-3.5"/>
<polygon fill="none" stroke="#000000" points="21.5,-3.5 21.5,-50.5 53.5,-50.5 53.5,-3.5 21.5,-3.5"/>
<text text-anchor="start" x="27.5" y="-18.9" font-family="PT Mono" font-size="32.00" fill="#000000">1</text>
<polygon fill="none" stroke="#000000" points="53.5,-3.5 53.5,-50.5 85.5,-50.5 85.5,-3.5 53.5,-3.5"/>
<text text-anchor="start" x="59.5" y="-18.9" font-family="PT Mono" font-size="32.00" fill="#000000">2</text>
<polygon fill="none" stroke="#000000" points="85.5,-3.5 85.5,-50.5 117.5,-50.5 117.5,-3.5 85.5,-3.5"/>
<text text-anchor="start" x="91.5" y="-18.9" font-family="PT Mono" font-size="32.00" fill="#000000">3</text>
<polygon fill="#ffff00" stroke="transparent" points="117.5,-3.5 117.5,-50.5 149.5,-50.5 149.5,-3.5 117.5,-3.5"/>
<polygon fill="none" stroke="#000000" points="117.5,-3.5 117.5,-50.5 149.5,-50.5 149.5,-3.5 117.5,-3.5"/>
<text text-anchor="start" x="123.5" y="-18.9" font-family="PT Mono" font-size="32.00" fill="#000000">5</text>
<polygon fill="none" stroke="#000000" points="149.5,-3.5 149.5,-50.5 181.5,-50.5 181.5,-3.5 149.5,-3.5"/>
<text text-anchor="start" x="155.5" y="-18.9" font-family="PT Mono" font-size="32.00" fill="#000000">7</text>
<polygon fill="none" stroke="#000000" points="181.5,-3.5 181.5,-50.5 233.5,-50.5 233.5,-3.5 181.5,-3.5"/>
<text text-anchor="start" x="187.5" y="-18.9" font-family="PT Mono" font-size="32.00" fill="#000000">11</text>
</g>
<!-- zero -->
<g id="node2" class="node">
<title>zero</title>
<polygon fill="#7fffd4" stroke="#000000" points="75,-134 0,-134 0,-91 75,-91 75,-134"/>
<text text-anchor="middle" x="37.5" y="-104.4" font-family="PT Mono" font-size="32.00" fill="#000000">0th</text>
</g>
<!-- zero&#45;&gt;list -->
<g id="edge1" class="edge">
<title>zero&#45;&gt;list:p0</title>
<path fill="none" stroke="#000000" d="M37.5,-90.9801C37.5,-82.0341 37.5,-71.3054 37.5,-60.8239"/>
<polygon fill="#000000" stroke="#000000" points="41.0001,-60.5 37.5,-50.5 34.0001,-60.5 41.0001,-60.5"/>
</g>
<!-- three -->
<g id="node3" class="node">
<title>three</title>
<polygon fill="#ffff00" stroke="#000000" points="171,-134 96,-134 96,-91 171,-91 171,-134"/>
<text text-anchor="middle" x="133.5" y="-104.4" font-family="PT Mono" font-size="32.00" fill="#000000">3rd</text>
</g>
<!-- three&#45;&gt;list -->
<g id="edge2" class="edge">
<title>three&#45;&gt;list:p3</title>
<path fill="none" stroke="#000000" d="M133.5,-90.9801C133.5,-82.0341 133.5,-71.3054 133.5,-60.8239"/>
<polygon fill="#000000" stroke="#000000" points="137.0001,-60.5 133.5,-50.5 130.0001,-60.5 137.0001,-60.5"/>
</g>
</g>
</svg>
