<?xml version="1.0" encoding="UTF-8" standalone="no"?>
<!DOCTYPE svg PUBLIC "-//W3C//DTD SVG 1.1//EN"
 "http://www.w3.org/Graphics/SVG/1.1/DTD/svg11.dtd">
<!-- Generated by graphviz version 2.40.1 (20161225.0304)
 -->
<!-- Title: G Pages: 1 -->
<svg width="446pt" height="221pt"
 viewBox="0.00 0.00 446.00 221.00" xmlns="http://www.w3.org/2000/svg" xmlns:xlink="http://www.w3.org/1999/xlink">
<g id="graph0" class="graph" transform="scale(1 1) rotate(0) translate(4 217)">
<title>G</title>
<polygon fill="#ffffff" stroke="transparent" points="-4,4 -4,-217 442,-217 442,4 -4,4"/>
<!-- list -->
<g id="node1" class="node">
<title>list</title>
<polygon fill="#ffffff" stroke="transparent" points="271.5,-134 36.5,-134 36.5,-79 271.5,-79 271.5,-134"/>
<polygon fill="none" stroke="#000000" points="45,-82.5 45,-129.5 77,-129.5 77,-82.5 45,-82.5"/>
<text text-anchor="start" x="51" y="-97.9" font-family="PT Mono" font-size="32.00" fill="#000000"> </text>
<polygon fill="none" stroke="#000000" points="77,-82.5 77,-129.5 109,-129.5 109,-82.5 77,-82.5"/>
<text text-anchor="start" x="83" y="-97.9" font-family="PT Mono" font-size="32.00" fill="#000000"> </text>
<polygon fill="none" stroke="#000000" points="109,-82.5 109,-129.5 141,-129.5 141,-82.5 109,-82.5"/>
<text text-anchor="start" x="115" y="-97.9" font-family="PT Mono" font-size="32.00" fill="#000000"> </text>
<polygon fill="none" stroke="#000000" points="141,-82.5 141,-129.5 173,-129.5 173,-82.5 141,-82.5"/>
<text text-anchor="start" x="147" y="-97.9" font-family="PT Mono" font-size="32.00" fill="#000000"> </text>
<polygon fill="none" stroke="#000000" points="173,-82.5 173,-129.5 264,-129.5 264,-82.5 173,-82.5"/>
<text text-anchor="start" x="179" y="-97.9" font-family="PT Mono" font-size="32.00" fill="#000000">last</text>
</g>
<!-- pop -->
<g id="node5" class="node">
<title>pop</title>
<path fill="#fae3a2" stroke="#000000" d="M244.5,-43C244.5,-43 193.5,-43 193.5,-43 187.5,-43 181.5,-37 181.5,-31 181.5,-31 181.5,-12 181.5,-12 181.5,-6 187.5,0 193.5,0 193.5,0 244.5,0 244.5,0 250.5,0 256.5,-6 256.5,-12 256.5,-12 256.5,-31 256.5,-31 256.5,-37 250.5,-43 244.5,-43"/>
<text text-anchor="middle" x="219" y="-13.4" font-family="PT Mono" font-size="32.00" fill="#000000">pop</text>
</g>
<!-- list&#45;&gt;pop -->
<g id="edge3" class="edge">
<title>list:last&#45;&gt;pop</title>
<path fill="none" stroke="#000000" d="M219,-82.5C219,-73.0358 219,-62.7456 219,-53.3594"/>
<polygon fill="#000000" stroke="#000000" points="222.5001,-53.2385 219,-43.2385 215.5001,-53.2386 222.5001,-53.2385"/>
</g>
<!-- list&#45;&gt;pop -->
<g id="edge5" class="edge">
<title>list:middle&#45;&gt;pop</title>
<path fill="none" stroke="#000000" d="M125,-82.5C125,-76.2191 148.9207,-60.752 172.6282,-46.9652"/>
<polygon fill="#000000" stroke="#000000" points="174.3784,-49.9963 181.3082,-41.982 170.8932,-43.9256 174.3784,-49.9963"/>
</g>
<!-- remove -->
<g id="node6" class="node">
<title>remove</title>
<path fill="#fae3a2" stroke="#000000" d="M151,-43C151,-43 41,-43 41,-43 35,-43 29,-37 29,-31 29,-31 29,-12 29,-12 29,-6 35,0 41,0 41,0 151,0 151,0 157,0 163,-6 163,-12 163,-12 163,-31 163,-31 163,-37 157,-43 151,-43"/>
<text text-anchor="middle" x="96" y="-13.4" font-family="PT Mono" font-size="32.00" fill="#000000">remove</text>
</g>
<!-- list&#45;&gt;remove -->
<g id="edge6" class="edge">
<title>list:middle&#45;&gt;remove</title>
<path fill="none" stroke="#000000" d="M125,-82.5C125,-72.0344 121.4752,-61.4519 116.8833,-52.106"/>
<polygon fill="#000000" stroke="#000000" points="119.8947,-50.3179 112.0268,-43.2225 113.7527,-53.6758 119.8947,-50.3179"/>
</g>
<!-- append -->
<g id="node2" class="node">
<title>append</title>
<path fill="#d0faa2" stroke="#000000" d="M274,-213C274,-213 164,-213 164,-213 158,-213 152,-207 152,-201 152,-201 152,-182 152,-182 152,-176 158,-170 164,-170 164,-170 274,-170 274,-170 280,-170 286,-176 286,-182 286,-182 286,-201 286,-201 286,-207 280,-213 274,-213"/>
<text text-anchor="middle" x="219" y="-183.4" font-family="PT Mono" font-size="32.00" fill="#000000">append</text>
</g>
<!-- append&#45;&gt;list -->
<g id="edge1" class="edge">
<title>append&#45;&gt;list:last</title>
<path fill="none" stroke="#000000" d="M219,-169.9801C219,-161.0341 219,-150.3054 219,-139.8239"/>
<polygon fill="#000000" stroke="#000000" points="222.5001,-139.5 219,-129.5 215.5001,-139.5 222.5001,-139.5"/>
</g>
<!-- extend -->
<g id="node3" class="node">
<title>extend</title>
<path fill="#d0faa2" stroke="#000000" d="M426,-213C426,-213 316,-213 316,-213 310,-213 304,-207 304,-201 304,-201 304,-182 304,-182 304,-176 310,-170 316,-170 316,-170 426,-170 426,-170 432,-170 438,-176 438,-182 438,-182 438,-201 438,-201 438,-207 432,-213 426,-213"/>
<text text-anchor="middle" x="371" y="-183.4" font-family="PT Mono" font-size="32.00" fill="#000000">extend</text>
</g>
<!-- extend&#45;&gt;list -->
<g id="edge2" class="edge">
<title>extend&#45;&gt;list:last</title>
<path fill="none" stroke="#000000" d="M357.2399,-169.7986C340.7529,-146.5112 310.7529,-112.0739 274.4121,-106.327"/>
<polygon fill="#000000" stroke="#000000" points="274.2458,-102.8029 264,-105.5 273.6914,-109.7809 274.2458,-102.8029"/>
</g>
<!-- insert -->
<g id="node4" class="node">
<title>insert</title>
<path fill="#d0faa2" stroke="#000000" d="M122,-213C122,-213 12,-213 12,-213 6,-213 0,-207 0,-201 0,-201 0,-182 0,-182 0,-176 6,-170 12,-170 12,-170 122,-170 122,-170 128,-170 134,-176 134,-182 134,-182 134,-201 134,-201 134,-207 128,-213 122,-213"/>
<text text-anchor="middle" x="67" y="-183.4" font-family="PT Mono" font-size="32.00" fill="#000000">insert</text>
</g>
<!-- insert&#45;&gt;list -->
<g id="edge4" class="edge">
<title>insert&#45;&gt;list:middle</title>
<path fill="none" stroke="#000000" d="M102.0769,-169.8247C111.7149,-161.6311 120.4153,-151.3559 123.6569,-139.4202"/>
<polygon fill="#000000" stroke="#000000" points="127.1267,-139.8792 125,-129.5 120.1899,-138.94 127.1267,-139.8792"/>
</g>
</g>
</svg>
