<?xml version="1.0" encoding="UTF-8" standalone="no"?>
<!DOCTYPE svg PUBLIC "-//W3C//DTD SVG 1.1//EN"
 "http://www.w3.org/Graphics/SVG/1.1/DTD/svg11.dtd">
<!-- Generated by graphviz version 2.40.1 (20161225.0304)
 -->
<!-- Title: G Pages: 1 -->
<svg width="312pt" height="142pt"
 viewBox="0.00 0.00 312.00 142.00" xmlns="http://www.w3.org/2000/svg" xmlns:xlink="http://www.w3.org/1999/xlink">
<g id="graph0" class="graph" transform="scale(1 1) rotate(0) translate(4 138)">
<title>G</title>
<polygon fill="#ffffff" stroke="transparent" points="-4,4 -4,-138 308,-138 308,4 -4,4"/>
<!-- list -->
<g id="node1" class="node">
<title>list</title>
<polygon fill="#ffffff" stroke="transparent" points="304,-55 0,-55 0,0 304,0 304,-55"/>
<polygon fill="#ffff00" stroke="transparent" points="8,-3.5 8,-50.5 40,-50.5 40,-3.5 8,-3.5"/>
<polygon fill="none" stroke="#000000" points="8,-3.5 8,-50.5 40,-50.5 40,-3.5 8,-3.5"/>
<text text-anchor="start" x="14" y="-18.9" font-family="PT Mono" font-size="32.00" fill="#000000">a</text>
<polygon fill="#ffff00" stroke="transparent" points="40,-3.5 40,-50.5 72,-50.5 72,-3.5 40,-3.5"/>
<polygon fill="none" stroke="#000000" points="40,-3.5 40,-50.5 72,-50.5 72,-3.5 40,-3.5"/>
<text text-anchor="start" x="46" y="-18.9" font-family="PT Mono" font-size="32.00" fill="#000000">b</text>
<polygon fill="#ffff00" stroke="transparent" points="72,-3.5 72,-50.5 104,-50.5 104,-3.5 72,-3.5"/>
<polygon fill="none" stroke="#000000" points="72,-3.5 72,-50.5 104,-50.5 104,-3.5 72,-3.5"/>
<text text-anchor="start" x="78" y="-18.9" font-family="PT Mono" font-size="32.00" fill="#000000">c</text>
<polygon fill="#f0ffff" stroke="transparent" points="104,-3.5 104,-50.5 136,-50.5 136,-3.5 104,-3.5"/>
<polygon fill="none" stroke="#000000" points="104,-3.5 104,-50.5 136,-50.5 136,-3.5 104,-3.5"/>
<text text-anchor="start" x="110" y="-18.9" font-family="PT Mono" font-size="32.00" fill="#000000">d</text>
<polygon fill="none" stroke="#000000" points="136,-3.5 136,-50.5 168,-50.5 168,-3.5 136,-3.5"/>
<text text-anchor="start" x="142" y="-18.9" font-family="PT Mono" font-size="32.00" fill="#000000">e</text>
<polygon fill="none" stroke="#000000" points="168,-3.5 168,-50.5 200,-50.5 200,-3.5 168,-3.5"/>
<text text-anchor="start" x="174" y="-18.9" font-family="PT Mono" font-size="32.00" fill="#000000">f</text>
<polygon fill="none" stroke="#000000" points="200,-3.5 200,-50.5 232,-50.5 232,-3.5 200,-3.5"/>
<text text-anchor="start" x="206" y="-18.9" font-family="PT Mono" font-size="32.00" fill="#000000">g</text>
<polygon fill="none" stroke="#000000" points="232,-3.5 232,-50.5 264,-50.5 264,-3.5 232,-3.5"/>
<text text-anchor="start" x="238" y="-18.9" font-family="PT Mono" font-size="32.00" fill="#000000">h</text>
<polygon fill="none" stroke="#000000" points="264,-3.5 264,-50.5 296,-50.5 296,-3.5 264,-3.5"/>
<text text-anchor="start" x="270" y="-18.9" font-family="PT Mono" font-size="32.00" fill="#000000">i</text>
</g>
<!-- include -->
<g id="node2" class="node">
<title>include</title>
<polygon fill="#ffff00" stroke="#000000" points="90,-134 34,-134 34,-91 90,-91 90,-134"/>
<text text-anchor="middle" x="62" y="-104.4" font-family="PT Mono" font-size="32.00" fill="#000000">:3</text>
</g>
<!-- include&#45;&gt;list -->
<g id="edge1" class="edge">
<title>include&#45;&gt;list:p2</title>
<path fill="none" stroke="#000000" d="M76.0653,-90.7422C80.7557,-81.9409 85.2598,-71.3061 87.1135,-60.4661"/>
<polygon fill="#000000" stroke="#000000" points="90.6001,-60.7708 88,-50.5 83.6276,-60.1505 90.6001,-60.7708"/>
</g>
<!-- outside -->
<g id="node3" class="node">
<title>outside</title>
<polygon fill="#f0ffff" stroke="#000000" points="183.5,-134 108.5,-134 108.5,-91 183.5,-91 183.5,-134"/>
<text text-anchor="middle" x="146" y="-104.4" font-family="PT Mono" font-size="32.00" fill="#000000">3rd</text>
</g>
<!-- outside&#45;&gt;list -->
<g id="edge2" class="edge">
<title>outside&#45;&gt;list:p3</title>
<path fill="none" stroke="#000000" d="M131.9347,-90.7422C127.2443,-81.9409 122.7402,-71.3061 120.8865,-60.4661"/>
<polygon fill="#000000" stroke="#000000" points="124.3724,-60.1505 120,-50.5 117.3999,-60.7708 124.3724,-60.1505"/>
</g>
</g>
</svg>
