<?xml version="1.0" encoding="UTF-8" standalone="no"?>
<!DOCTYPE svg PUBLIC "-//W3C//DTD SVG 1.1//EN"
 "http://www.w3.org/Graphics/SVG/1.1/DTD/svg11.dtd">
<!-- Generated by graphviz version 2.40.1 (20161225.0304)
 -->
<!-- Title: G Pages: 1 -->
<svg width="338pt" height="298pt"
 viewBox="0.00 0.00 338.00 298.00" xmlns="http://www.w3.org/2000/svg" xmlns:xlink="http://www.w3.org/1999/xlink">
<g id="graph0" class="graph" transform="scale(1 1) rotate(0) translate(4 294)">
<title>G</title>
<polygon fill="#ffffff" stroke="transparent" points="-4,4 -4,-294 334,-294 334,4 -4,4"/>
<!-- loop -->
<g id="node1" class="node">
<title>loop</title>
<polygon fill="#ffffff" stroke="transparent" points="199,-290 73,-290 73,0 199,0 199,-290"/>
<polygon fill="#d0faa2" stroke="transparent" points="81,-239 81,-286 191,-286 191,-239 81,-239"/>
<polygon fill="none" stroke="#000000" points="81,-239 81,-286 191,-286 191,-239 81,-239"/>
<text text-anchor="start" x="87" y="-254.4" font-family="PT Mono" font-size="32.00" fill="#000000">begin</text>
<polygon fill="none" stroke="#000000" points="81,-192 81,-239 191,-239 191,-192 81,-192"/>
<text text-anchor="start" x="126" y="-207.4" font-family="PT Mono" font-size="32.00" fill="#000000"> </text>
<polygon fill="#fafaa2" stroke="transparent" points="81,-145 81,-192 191,-192 191,-145 81,-145"/>
<polygon fill="none" stroke="#000000" points="81,-145 81,-192 191,-192 191,-145 81,-145"/>
<text text-anchor="start" x="126" y="-160.4" font-family="PT Mono" font-size="32.00" fill="#000000"> </text>
<polygon fill="#fae3a2" stroke="transparent" points="81,-98 81,-145 191,-145 191,-98 81,-98"/>
<polygon fill="none" stroke="#000000" points="81,-98 81,-145 191,-145 191,-98 81,-98"/>
<text text-anchor="start" x="126" y="-113.4" font-family="PT Mono" font-size="32.00" fill="#000000"> </text>
<polygon fill="none" stroke="#000000" points="81,-51 81,-98 191,-98 191,-51 81,-51"/>
<text text-anchor="start" x="126" y="-66.4" font-family="PT Mono" font-size="32.00" fill="#000000"> </text>
<polygon fill="none" stroke="#000000" points="81,-4 81,-51 191,-51 191,-4 81,-4"/>
<text text-anchor="start" x="106.5" y="-19.4" font-family="PT Mono" font-size="32.00" fill="#000000">end</text>
</g>
<!-- loop&#45;&gt;loop -->
<g id="edge1" class="edge">
<title>loop:e&#45;&gt;loop:e</title>
<path fill="none" stroke="#000000" d="M191,-169C223.3333,-160 272,-160 272,-216 272,-266.5313 232.3744,-271.4659 200.8794,-265.3355"/>
<polygon fill="#000000" stroke="#000000" points="201.537,-261.8945 191,-263 199.9266,-268.7068 201.537,-261.8945"/>
</g>
<!-- loop&#45;&gt;loop -->
<g id="edge2" class="edge">
<title>loop:end&#45;&gt;loop:begin</title>
<path fill="none" stroke="#000000" d="M80.8287,-25.3311C40.4539,-32.0011 0,-60.168 0,-145 0,-222.8732 34.0891,-252.9965 70.9135,-262.5741"/>
<polygon fill="#000000" stroke="#000000" points="70.3212,-266.0261 80.8287,-264.6689 71.7682,-259.1773 70.3212,-266.0261"/>
</g>
<!-- away -->
<g id="node2" class="node">
<title>away</title>
<polygon fill="#ffffff" stroke="#000000" points="330,-142.5 235,-142.5 235,-99.5 330,-99.5 330,-142.5"/>
<text text-anchor="middle" x="282.5" y="-112.9" font-family="PT Mono" font-size="32.00" fill="#000000">away</text>
</g>
<!-- loop&#45;&gt;away -->
<g id="edge3" class="edge">
<title>loop:exit&#45;&gt;away</title>
<path fill="none" stroke="#000000" d="M191,-121C201.8244,-121 213.3691,-121 224.4838,-121"/>
<polygon fill="#000000" stroke="#000000" points="224.5373,-124.5001 234.5373,-121 224.5372,-117.5001 224.5373,-124.5001"/>
</g>
</g>
</svg>
