<?xml version="1.0" encoding="UTF-8" standalone="no"?>
<!DOCTYPE svg PUBLIC "-//W3C//DTD SVG 1.1//EN"
 "http://www.w3.org/Graphics/SVG/1.1/DTD/svg11.dtd">
<!-- Generated by graphviz version 2.40.1 (20161225.0304)
 -->
<!-- Title: G Pages: 1 -->
<svg width="289pt" height="208pt"
 viewBox="0.00 0.00 289.00 208.00" xmlns="http://www.w3.org/2000/svg" xmlns:xlink="http://www.w3.org/1999/xlink">
<g id="graph0" class="graph" transform="scale(1 1) rotate(0) translate(4 204)">
<title>G</title>
<polygon fill="#ffffff" stroke="transparent" points="-4,4 -4,-204 285,-204 285,4 -4,4"/>
<!-- loop -->
<g id="node1" class="node">
<title>loop</title>
<polygon fill="#ffffff" stroke="transparent" points="186,-200 63,-200 63,0 186,0 186,-200"/>
<polygon fill="#d0faa2" stroke="transparent" points="71.5,-164 71.5,-196 178.5,-196 178.5,-164 71.5,-164"/>
<polygon fill="none" stroke="#000000" points="71.5,-164 71.5,-196 178.5,-196 178.5,-164 71.5,-164"/>
<text text-anchor="start" x="98.5" y="-175.6" font-family="PT Mono" font-size="18.00" fill="#000000">begin</text>
<polygon fill="none" stroke="#000000" points="71.5,-132 71.5,-164 178.5,-164 178.5,-132 71.5,-132"/>
<text text-anchor="start" x="119.5" y="-143.6" font-family="PT Mono" font-size="18.00" fill="#000000"> </text>
<polygon fill="#fafaa2" stroke="transparent" points="71.5,-100 71.5,-132 178.5,-132 178.5,-100 71.5,-100"/>
<polygon fill="none" stroke="#000000" points="71.5,-100 71.5,-132 178.5,-132 178.5,-100 71.5,-100"/>
<text text-anchor="start" x="119.5" y="-111.6" font-family="PT Mono" font-size="18.00" fill="#000000"> </text>
<polygon fill="#fae3a2" stroke="transparent" points="71.5,-68 71.5,-100 178.5,-100 178.5,-68 71.5,-68"/>
<polygon fill="none" stroke="#000000" points="71.5,-68 71.5,-100 178.5,-100 178.5,-68 71.5,-68"/>
<text text-anchor="start" x="119.5" y="-79.6" font-family="PT Mono" font-size="18.00" fill="#000000"> </text>
<polygon fill="none" stroke="#000000" points="71.5,-36 71.5,-68 178.5,-68 178.5,-36 71.5,-36"/>
<text text-anchor="start" x="77.5" y="-47.6" font-family="PT Mono" font-size="18.00" fill="#000000">         </text>
<polygon fill="none" stroke="#000000" points="71.5,-4 71.5,-36 178.5,-36 178.5,-4 71.5,-4"/>
<text text-anchor="start" x="109" y="-15.6" font-family="PT Mono" font-size="18.00" fill="#000000">end</text>
</g>
<!-- loop&#45;&gt;loop -->
<g id="edge1" class="edge">
<title>loop:e&#45;&gt;loop:e</title>
<path fill="none" stroke="#000000" d="M178.5,-116C207,-107 249,-107 249,-148 249,-184.5156 215.6851,-188.5095 188.2634,-182.5883"/>
<polygon fill="#000000" stroke="#000000" points="189.063,-179.1794 178.5,-180 187.2692,-185.9457 189.063,-179.1794"/>
</g>
<!-- loop&#45;&gt;loop -->
<g id="edge2" class="edge">
<title>loop:end&#45;&gt;loop:begin</title>
<path fill="none" stroke="#000000" d="M71.4686,-17.3211C35.3196,-22.0001 0,-42.2891 0,-100 0,-152.3005 29.0076,-173.8668 61.352,-180.9334"/>
<polygon fill="#000000" stroke="#000000" points="61.0191,-184.4276 71.4686,-182.6789 62.2093,-177.5295 61.0191,-184.4276"/>
</g>
<!-- away -->
<g id="node2" class="node">
<title>away</title>
<polygon fill="#ffffff" stroke="#000000" points="281,-102 222,-102 222,-66 281,-66 281,-102"/>
<text text-anchor="middle" x="251.5" y="-79.6" font-family="PT Mono" font-size="18.00" fill="#000000">away</text>
</g>
<!-- loop&#45;&gt;away -->
<g id="edge3" class="edge">
<title>loop:exit&#45;&gt;away</title>
<path fill="none" stroke="#000000" d="M178.5,-84C189.1458,-84 200.665,-84 211.3381,-84"/>
<polygon fill="#000000" stroke="#000000" points="211.6656,-87.5001 221.6655,-84 211.6655,-80.5001 211.6656,-87.5001"/>
</g>
</g>
</svg>
