<?xml version="1.0" encoding="UTF-8" standalone="no"?>
<!DOCTYPE svg PUBLIC "-//W3C//DTD SVG 1.1//EN"
 "http://www.w3.org/Graphics/SVG/1.1/DTD/svg11.dtd">
<!-- Generated by graphviz version 2.40.1 (20161225.0304)
 -->
<!-- Title: G Pages: 1 -->
<svg width="277pt" height="208pt"
 viewBox="0.00 0.00 277.00 208.00" xmlns="http://www.w3.org/2000/svg" xmlns:xlink="http://www.w3.org/1999/xlink">
<g id="graph0" class="graph" transform="scale(1 1) rotate(0) translate(4 204)">
<title>G</title>
<polygon fill="#ffffff" stroke="transparent" points="-4,4 -4,-204 273,-204 273,4 -4,4"/>
<!-- loop -->
<g id="node1" class="node">
<title>loop</title>
<polygon fill="#ffffff" stroke="transparent" points="174,-200 61,-200 61,0 174,0 174,-200"/>
<polygon fill="#d0faa2" stroke="transparent" points="69.5,-164 69.5,-196 166.5,-196 166.5,-164 69.5,-164"/>
<polygon fill="none" stroke="#000000" points="69.5,-164 69.5,-196 166.5,-196 166.5,-164 69.5,-164"/>
<text text-anchor="start" x="91.5" y="-175.6" font-family="PT Mono" font-size="18.00" fill="#000000">begin</text>
<polygon fill="none" stroke="#000000" points="69.5,-132 69.5,-164 166.5,-164 166.5,-132 69.5,-132"/>
<text text-anchor="start" x="112.5" y="-143.6" font-family="PT Mono" font-size="18.00" fill="#000000"> </text>
<polygon fill="#fafaa2" stroke="transparent" points="69.5,-100 69.5,-132 166.5,-132 166.5,-100 69.5,-100"/>
<polygon fill="none" stroke="#000000" points="69.5,-100 69.5,-132 166.5,-132 166.5,-100 69.5,-100"/>
<text text-anchor="start" x="75.5" y="-111.6" font-family="PT Mono" font-size="18.00" fill="#000000">continue</text>
<polygon fill="#fae3a2" stroke="transparent" points="69.5,-68 69.5,-100 166.5,-100 166.5,-68 69.5,-68"/>
<polygon fill="none" stroke="#000000" points="69.5,-68 69.5,-100 166.5,-100 166.5,-68 69.5,-68"/>
<text text-anchor="start" x="112.5" y="-79.6" font-family="PT Mono" font-size="18.00" fill="#000000"> </text>
<polygon fill="none" stroke="#000000" points="69.5,-36 69.5,-68 166.5,-68 166.5,-36 69.5,-36"/>
<text text-anchor="start" x="112.5" y="-47.6" font-family="PT Mono" font-size="18.00" fill="#000000"> </text>
<polygon fill="none" stroke="#000000" points="69.5,-4 69.5,-36 166.5,-36 166.5,-4 69.5,-4"/>
<text text-anchor="start" x="102" y="-15.6" font-family="PT Mono" font-size="18.00" fill="#000000">end</text>
</g>
<!-- loop&#45;&gt;loop -->
<g id="edge1" class="edge">
<title>loop:e&#45;&gt;loop:e</title>
<path fill="none" stroke="#000000" d="M166.5,-116C194.3333,-107 235,-107 235,-148 235,-184.3555 203.025,-188.4739 176.3753,-182.6656"/>
<polygon fill="#000000" stroke="#000000" points="177.0666,-179.227 166.5,-180 175.2423,-185.9851 177.0666,-179.227"/>
</g>
<!-- loop&#45;&gt;loop -->
<g id="edge2" class="edge">
<title>loop:end&#45;&gt;loop:begin</title>
<path fill="none" stroke="#000000" d="M69.3417,-17.0825C34.574,-21.2789 0,-41.2461 0,-100 0,-153.0162 28.151,-174.4513 59.1934,-181.2154"/>
<polygon fill="#000000" stroke="#000000" points="58.9005,-184.7151 69.3417,-182.9175 60.0584,-177.8115 58.9005,-184.7151"/>
</g>
<!-- away -->
<g id="node2" class="node">
<title>away</title>
<polygon fill="#ffffff" stroke="#000000" points="269,-102 210,-102 210,-66 269,-66 269,-102"/>
<text text-anchor="middle" x="239.5" y="-79.6" font-family="PT Mono" font-size="18.00" fill="#000000">away</text>
</g>
<!-- loop&#45;&gt;away -->
<g id="edge3" class="edge">
<title>loop:exit&#45;&gt;away</title>
<path fill="none" stroke="#000000" d="M166.5,-84C177.1458,-84 188.665,-84 199.3381,-84"/>
<polygon fill="#000000" stroke="#000000" points="199.6656,-87.5001 209.6655,-84 199.6655,-80.5001 199.6656,-87.5001"/>
</g>
</g>
</svg>
