<?xml version="1.0" encoding="UTF-8" standalone="no"?>
<!DOCTYPE svg PUBLIC "-//W3C//DTD SVG 1.1//EN"
 "http://www.w3.org/Graphics/SVG/1.1/DTD/svg11.dtd">
<!-- Generated by graphviz version 2.40.1 (20161225.0304)
 -->
<!-- Title: G Pages: 1 -->
<svg width="395pt" height="224pt"
 viewBox="0.00 0.00 395.00 224.00" xmlns="http://www.w3.org/2000/svg" xmlns:xlink="http://www.w3.org/1999/xlink">
<g id="graph0" class="graph" transform="scale(1 1) rotate(0) translate(4 220)">
<title>G</title>
<polygon fill="#ffffff" stroke="transparent" points="-4,4 -4,-220 391,-220 391,4 -4,4"/>
<!-- loop -->
<g id="node1" class="node">
<title>loop</title>
<polygon fill="#ffffff" stroke="#000000" points="84,-.5 84,-215.5 198,-215.5 198,-.5 84,-.5"/>
<text text-anchor="middle" x="141" y="-185.9" font-family="PT Mono" font-size="32.00" fill="#000000">begin</text>
<polyline fill="none" stroke="#000000" points="84,-172.5 198,-172.5 "/>
<text text-anchor="middle" x="141" y="-142.9" font-family="PT Mono" font-size="32.00" fill="#000000"> </text>
<polyline fill="none" stroke="#000000" points="84,-129.5 198,-129.5 "/>
<text text-anchor="middle" x="141" y="-99.9" font-family="PT Mono" font-size="32.00" fill="#000000"> </text>
<polyline fill="none" stroke="#000000" points="84,-86.5 198,-86.5 "/>
<text text-anchor="middle" x="141" y="-56.9" font-family="PT Mono" font-size="32.00" fill="#000000"> </text>
<polyline fill="none" stroke="#000000" points="84,-43.5 198,-43.5 "/>
<text text-anchor="middle" x="141" y="-13.9" font-family="PT Mono" font-size="32.00" fill="#000000">end</text>
</g>
<!-- loop&#45;&gt;loop -->
<g id="edge1" class="edge">
<title>loop:e&#45;&gt;loop:e</title>
<path fill="none" stroke="#000000" d="M198,-108C226,-99 282,-99 282,-151 282,-197.5156 237.1896,-202.4216 207.6952,-196.4969"/>
<polygon fill="#000000" stroke="#000000" points="208.5569,-193.1047 198,-194 206.8111,-199.8835 208.5569,-193.1047"/>
</g>
<!-- loop&#45;&gt;loop -->
<g id="edge2" class="edge">
<title>loop:end&#45;&gt;loop:begin</title>
<path fill="none" stroke="#000000" d="M83.8003,-19.1598C41.9411,-23.4733 0,-44.543 0,-108 0,-166.2516 35.3424,-188.7848 73.5206,-195.4263"/>
<polygon fill="#000000" stroke="#000000" points="73.4167,-198.9449 83.8003,-196.8402 74.3706,-192.0102 73.4167,-198.9449"/>
</g>
<!-- go away -->
<g id="node2" class="node">
<title>go away</title>
<polygon fill="#ffffff" stroke="#000000" points="387,-86.5 234,-86.5 234,-43.5 387,-43.5 387,-86.5"/>
<text text-anchor="middle" x="310.5" y="-56.9" font-family="PT Mono" font-size="32.00" fill="#000000">go away</text>
</g>
<!-- loop&#45;&gt;go away -->
<g id="edge3" class="edge">
<title>loop:exit&#45;&gt;go away</title>
<path fill="none" stroke="#000000" d="M198,-65C206.3527,-65 215.0542,-65 223.7548,-65"/>
<polygon fill="#000000" stroke="#000000" points="223.9474,-68.5001 233.9474,-65 223.9473,-61.5001 223.9474,-68.5001"/>
</g>
</g>
</svg>
