<?xml version="1.0" encoding="UTF-8" standalone="no"?>
<!DOCTYPE svg PUBLIC "-//W3C//DTD SVG 1.1//EN"
 "http://www.w3.org/Graphics/SVG/1.1/DTD/svg11.dtd">
<!-- Generated by graphviz version 2.40.1 (20161225.0304)
 -->
<!-- Title: G Pages: 1 -->
<svg width="237pt" height="208pt"
 viewBox="0.00 0.00 237.00 208.00" xmlns="http://www.w3.org/2000/svg" xmlns:xlink="http://www.w3.org/1999/xlink">
<g id="graph0" class="graph" transform="scale(1 1) rotate(0) translate(4 204)">
<title>G</title>
<polygon fill="#ffffff" stroke="transparent" points="-4,4 -4,-204 233,-204 233,4 -4,4"/>
<!-- loop -->
<g id="node1" class="node">
<title>loop</title>
<polygon fill="#ffffff" stroke="transparent" points="134,-200 53,-200 53,0 134,0 134,-200"/>
<polygon fill="#d0faa2" stroke="transparent" points="61.5,-164 61.5,-196 126.5,-196 126.5,-164 61.5,-164"/>
<polygon fill="none" stroke="#000000" points="61.5,-164 61.5,-196 126.5,-196 126.5,-164 61.5,-164"/>
<text text-anchor="start" x="67.5" y="-175.6" font-family="PT Mono" font-size="18.00" fill="#000000">begin</text>
<polygon fill="none" stroke="#000000" points="61.5,-132 61.5,-164 126.5,-164 126.5,-132 61.5,-132"/>
<text text-anchor="start" x="88.5" y="-143.6" font-family="PT Mono" font-size="18.00" fill="#000000"> </text>
<polygon fill="#fafaa2" stroke="transparent" points="61.5,-100 61.5,-132 126.5,-132 126.5,-100 61.5,-100"/>
<polygon fill="none" stroke="#000000" points="61.5,-100 61.5,-132 126.5,-132 126.5,-100 61.5,-100"/>
<text text-anchor="start" x="88.5" y="-111.6" font-family="PT Mono" font-size="18.00" fill="#000000"> </text>
<polygon fill="#fae3a2" stroke="transparent" points="61.5,-68 61.5,-100 126.5,-100 126.5,-68 61.5,-68"/>
<polygon fill="none" stroke="#000000" points="61.5,-68 61.5,-100 126.5,-100 126.5,-68 61.5,-68"/>
<text text-anchor="start" x="67.5" y="-79.6" font-family="PT Mono" font-size="18.00" fill="#000000">break</text>
<polygon fill="none" stroke="#000000" points="61.5,-36 61.5,-68 126.5,-68 126.5,-36 61.5,-36"/>
<text text-anchor="start" x="88.5" y="-47.6" font-family="PT Mono" font-size="18.00" fill="#000000"> </text>
<polygon fill="none" stroke="#000000" points="61.5,-4 61.5,-36 126.5,-36 126.5,-4 61.5,-4"/>
<text text-anchor="start" x="78" y="-15.6" font-family="PT Mono" font-size="18.00" fill="#000000">end</text>
</g>
<!-- loop&#45;&gt;loop -->
<g id="edge1" class="edge">
<title>loop:e&#45;&gt;loop:e</title>
<path fill="none" stroke="#000000" d="M126.5,-116C151.6667,-107 187,-107 187,-148 187,-183.875 159.9479,-188.3594 136.3252,-182.8906"/>
<polygon fill="#000000" stroke="#000000" points="137.0813,-179.4648 126.5,-180 135.1056,-186.1802 137.0813,-179.4648"/>
</g>
<!-- loop&#45;&gt;loop -->
<g id="edge2" class="edge">
<title>loop:end&#45;&gt;loop:begin</title>
<path fill="none" stroke="#000000" d="M61.2262,-16.4189C31.6599,-18.6389 0,-37.0742 0,-100 0,-155.7975 24.8932,-176.6134 51.1467,-182.1613"/>
<polygon fill="#000000" stroke="#000000" points="50.8357,-185.6519 61.2262,-183.5811 51.8122,-178.7204 50.8357,-185.6519"/>
</g>
<!-- away -->
<g id="node2" class="node">
<title>away</title>
<polygon fill="#ffffff" stroke="#000000" points="229,-102 170,-102 170,-66 229,-66 229,-102"/>
<text text-anchor="middle" x="199.5" y="-79.6" font-family="PT Mono" font-size="18.00" fill="#000000">away</text>
</g>
<!-- loop&#45;&gt;away -->
<g id="edge3" class="edge">
<title>loop:exit&#45;&gt;away</title>
<path fill="none" stroke="#000000" d="M126.5,-84C137.1458,-84 148.665,-84 159.3381,-84"/>
<polygon fill="#000000" stroke="#000000" points="159.6656,-87.5001 169.6655,-84 159.6655,-80.5001 159.6656,-87.5001"/>
</g>
</g>
</svg>
