<?xml version="1.0" encoding="UTF-8" standalone="no"?>
<!DOCTYPE svg PUBLIC "-//W3C//DTD SVG 1.1//EN"
 "http://www.w3.org/Graphics/SVG/1.1/DTD/svg11.dtd">
<!-- Generated by graphviz version 2.40.1 (20161225.0304)
 -->
<!-- Title: G Pages: 1 -->
<svg width="610pt" height="166pt"
 viewBox="0.00 0.00 610.00 166.00" xmlns="http://www.w3.org/2000/svg" xmlns:xlink="http://www.w3.org/1999/xlink">
<g id="graph0" class="graph" transform="scale(1 1) rotate(0) translate(4 162)">
<title>G</title>
<polygon fill="#ffffff" stroke="transparent" points="-4,4 -4,-162 606,-162 606,4 -4,4"/>
<!-- list -->
<g id="node1" class="node">
<title>list</title>
<polygon fill="#ffffff" stroke="transparent" points="602,-158 0,-158 0,0 602,0 602,-158"/>
<polygon fill="#ffbbaa" stroke="transparent" points="8,-124 8,-154 40,-154 40,-124 8,-124"/>
<polygon fill="none" stroke="#000000" points="8,-124 8,-154 40,-154 40,-124 8,-124"/>
<text text-anchor="start" x="19" y="-135.2" font-family="PT Mono" font-size="16.00" fill="#000000">H</text>
<polygon fill="#ffdcd3" stroke="transparent" points="520,-124 520,-154 562,-154 562,-124 520,-124"/>
<polygon fill="none" stroke="#000000" points="520,-124 520,-154 562,-154 562,-124 520,-124"/>
<text text-anchor="start" x="526" y="-135.2" font-family="PT Mono" font-size="16.00" fill="#000000">(H)</text>
<polygon fill="#ffbbaa" stroke="transparent" points="562,-124 562,-154 594,-154 594,-124 562,-124"/>
<polygon fill="none" stroke="#000000" points="562,-124 562,-154 594,-154 594,-124 562,-124"/>
<text text-anchor="start" x="568" y="-135.2" font-family="PT Mono" font-size="16.00" fill="#000000">He</text>
<polygon fill="#ffbbaa" stroke="transparent" points="8,-94 8,-124 40,-124 40,-94 8,-94"/>
<polygon fill="none" stroke="#000000" points="8,-94 8,-124 40,-124 40,-94 8,-94"/>
<text text-anchor="start" x="14" y="-105.2" font-family="PT Mono" font-size="16.00" fill="#000000">Li</text>
<polygon fill="#ffbbaa" stroke="transparent" points="40,-94 40,-124 72,-124 72,-94 40,-94"/>
<polygon fill="none" stroke="#000000" points="40,-94 40,-124 72,-124 72,-94 40,-94"/>
<text text-anchor="start" x="46" y="-105.2" font-family="PT Mono" font-size="16.00" fill="#000000">Be</text>
<polygon fill="#fafaa2" stroke="transparent" points="392,-94 392,-124 424,-124 424,-94 392,-94"/>
<polygon fill="none" stroke="#000000" points="392,-94 392,-124 424,-124 424,-94 392,-94"/>
<text text-anchor="start" x="403" y="-105.2" font-family="PT Mono" font-size="16.00" fill="#000000">B</text>
<polygon fill="#fafaa2" stroke="transparent" points="424,-94 424,-124 456,-124 456,-94 424,-94"/>
<polygon fill="none" stroke="#000000" points="424,-94 424,-124 456,-124 456,-94 424,-94"/>
<text text-anchor="start" x="435" y="-105.2" font-family="PT Mono" font-size="16.00" fill="#000000">C</text>
<polygon fill="#fafaa2" stroke="transparent" points="456,-94 456,-124 488,-124 488,-94 456,-94"/>
<polygon fill="none" stroke="#000000" points="456,-94 456,-124 488,-124 488,-94 456,-94"/>
<text text-anchor="start" x="467" y="-105.2" font-family="PT Mono" font-size="16.00" fill="#000000">N</text>
<polygon fill="#fafaa2" stroke="transparent" points="488,-94 488,-124 520,-124 520,-94 488,-94"/>
<polygon fill="none" stroke="#000000" points="488,-94 488,-124 520,-124 520,-94 488,-94"/>
<text text-anchor="start" x="499" y="-105.2" font-family="PT Mono" font-size="16.00" fill="#000000">O</text>
<polygon fill="#fafaa2" stroke="transparent" points="520,-94 520,-124 562,-124 562,-94 520,-94"/>
<polygon fill="none" stroke="#000000" points="520,-94 520,-124 562,-124 562,-94 520,-94"/>
<text text-anchor="start" x="536" y="-105.2" font-family="PT Mono" font-size="16.00" fill="#000000">F</text>
<polygon fill="#fafaa2" stroke="transparent" points="562,-94 562,-124 594,-124 594,-94 562,-94"/>
<polygon fill="none" stroke="#000000" points="562,-94 562,-124 594,-124 594,-94 562,-94"/>
<text text-anchor="start" x="568" y="-105.2" font-family="PT Mono" font-size="16.00" fill="#000000">Ne</text>
<polygon fill="#ffbbaa" stroke="transparent" points="8,-64 8,-94 40,-94 40,-64 8,-64"/>
<polygon fill="none" stroke="#000000" points="8,-64 8,-94 40,-94 40,-64 8,-64"/>
<text text-anchor="start" x="14" y="-75.2" font-family="PT Mono" font-size="16.00" fill="#000000">Na</text>
<polygon fill="#ffbbaa" stroke="transparent" points="40,-64 40,-94 72,-94 72,-64 40,-64"/>
<polygon fill="none" stroke="#000000" points="40,-64 40,-94 72,-94 72,-64 40,-64"/>
<text text-anchor="start" x="46" y="-75.2" font-family="PT Mono" font-size="16.00" fill="#000000">Mg</text>
<polygon fill="#fafaa2" stroke="transparent" points="392,-64 392,-94 424,-94 424,-64 392,-64"/>
<polygon fill="none" stroke="#000000" points="392,-64 392,-94 424,-94 424,-64 392,-64"/>
<text text-anchor="start" x="398" y="-75.2" font-family="PT Mono" font-size="16.00" fill="#000000">Al</text>
<polygon fill="#fafaa2" stroke="transparent" points="424,-64 424,-94 456,-94 456,-64 424,-64"/>
<polygon fill="none" stroke="#000000" points="424,-64 424,-94 456,-94 456,-64 424,-64"/>
<text text-anchor="start" x="430" y="-75.2" font-family="PT Mono" font-size="16.00" fill="#000000">Si</text>
<polygon fill="#fafaa2" stroke="transparent" points="456,-64 456,-94 488,-94 488,-64 456,-64"/>
<polygon fill="none" stroke="#000000" points="456,-64 456,-94 488,-94 488,-64 456,-64"/>
<text text-anchor="start" x="467" y="-75.2" font-family="PT Mono" font-size="16.00" fill="#000000">P</text>
<polygon fill="#fafaa2" stroke="transparent" points="488,-64 488,-94 520,-94 520,-64 488,-64"/>
<polygon fill="none" stroke="#000000" points="488,-64 488,-94 520,-94 520,-64 488,-64"/>
<text text-anchor="start" x="499" y="-75.2" font-family="PT Mono" font-size="16.00" fill="#000000">S</text>
<polygon fill="#fafaa2" stroke="transparent" points="520,-64 520,-94 562,-94 562,-64 520,-64"/>
<polygon fill="none" stroke="#000000" points="520,-64 520,-94 562,-94 562,-64 520,-64"/>
<text text-anchor="start" x="531" y="-75.2" font-family="PT Mono" font-size="16.00" fill="#000000">Cl</text>
<polygon fill="#fafaa2" stroke="transparent" points="562,-64 562,-94 594,-94 594,-64 562,-64"/>
<polygon fill="none" stroke="#000000" points="562,-64 562,-94 594,-94 594,-64 562,-64"/>
<text text-anchor="start" x="568" y="-75.2" font-family="PT Mono" font-size="16.00" fill="#000000">Ar</text>
<polygon fill="#ffbbaa" stroke="transparent" points="8,-34 8,-64 40,-64 40,-34 8,-34"/>
<polygon fill="none" stroke="#000000" points="8,-34 8,-64 40,-64 40,-34 8,-34"/>
<text text-anchor="start" x="19" y="-45.2" font-family="PT Mono" font-size="16.00" fill="#000000">K</text>
<polygon fill="#ffbbaa" stroke="transparent" points="40,-34 40,-64 72,-64 72,-34 40,-34"/>
<polygon fill="none" stroke="#000000" points="40,-34 40,-64 72,-64 72,-34 40,-34"/>
<text text-anchor="start" x="46" y="-45.2" font-family="PT Mono" font-size="16.00" fill="#000000">Ca</text>
<polygon fill="#c0daf5" stroke="transparent" points="72,-34 72,-64 104,-64 104,-34 72,-34"/>
<polygon fill="none" stroke="#000000" points="72,-34 72,-64 104,-64 104,-34 72,-34"/>
<text text-anchor="start" x="78" y="-45.2" font-family="PT Mono" font-size="16.00" fill="#000000">Sc</text>
<polygon fill="#c0daf5" stroke="transparent" points="104,-34 104,-64 136,-64 136,-34 104,-34"/>
<polygon fill="none" stroke="#000000" points="104,-34 104,-64 136,-64 136,-34 104,-34"/>
<text text-anchor="start" x="110" y="-45.2" font-family="PT Mono" font-size="16.00" fill="#000000">Ti</text>
<polygon fill="#c0daf5" stroke="transparent" points="136,-34 136,-64 168,-64 168,-34 136,-34"/>
<polygon fill="none" stroke="#000000" points="136,-34 136,-64 168,-64 168,-34 136,-34"/>
<text text-anchor="start" x="147" y="-45.2" font-family="PT Mono" font-size="16.00" fill="#000000">V</text>
<polygon fill="#c0daf5" stroke="transparent" points="168,-34 168,-64 200,-64 200,-34 168,-34"/>
<polygon fill="none" stroke="#000000" points="168,-34 168,-64 200,-64 200,-34 168,-34"/>
<text text-anchor="start" x="174" y="-45.2" font-family="PT Mono" font-size="16.00" fill="#000000">Cr</text>
<polygon fill="#c0daf5" stroke="transparent" points="200,-34 200,-64 232,-64 232,-34 200,-34"/>
<polygon fill="none" stroke="#000000" points="200,-34 200,-64 232,-64 232,-34 200,-34"/>
<text text-anchor="start" x="206" y="-45.2" font-family="PT Mono" font-size="16.00" fill="#000000">Mn</text>
<polygon fill="#c0daf5" stroke="transparent" points="232,-34 232,-64 264,-64 264,-34 232,-34"/>
<polygon fill="none" stroke="#000000" points="232,-34 232,-64 264,-64 264,-34 232,-34"/>
<text text-anchor="start" x="238" y="-45.2" font-family="PT Mono" font-size="16.00" fill="#000000">Fe</text>
<polygon fill="#c0daf5" stroke="transparent" points="264,-34 264,-64 296,-64 296,-34 264,-34"/>
<polygon fill="none" stroke="#000000" points="264,-34 264,-64 296,-64 296,-34 264,-34"/>
<text text-anchor="start" x="270" y="-45.2" font-family="PT Mono" font-size="16.00" fill="#000000">Co</text>
<polygon fill="#c0daf5" stroke="transparent" points="296,-34 296,-64 328,-64 328,-34 296,-34"/>
<polygon fill="none" stroke="#000000" points="296,-34 296,-64 328,-64 328,-34 296,-34"/>
<text text-anchor="start" x="302" y="-45.2" font-family="PT Mono" font-size="16.00" fill="#000000">Ni</text>
<polygon fill="#c0daf5" stroke="transparent" points="328,-34 328,-64 360,-64 360,-34 328,-34"/>
<polygon fill="none" stroke="#000000" points="328,-34 328,-64 360,-64 360,-34 328,-34"/>
<text text-anchor="start" x="334" y="-45.2" font-family="PT Mono" font-size="16.00" fill="#000000">Cu</text>
<polygon fill="#c0daf5" stroke="transparent" points="360,-34 360,-64 392,-64 392,-34 360,-34"/>
<polygon fill="none" stroke="#000000" points="360,-34 360,-64 392,-64 392,-34 360,-34"/>
<text text-anchor="start" x="366" y="-45.2" font-family="PT Mono" font-size="16.00" fill="#000000">Zn</text>
<polygon fill="#fafaa2" stroke="transparent" points="392,-34 392,-64 424,-64 424,-34 392,-34"/>
<polygon fill="none" stroke="#000000" points="392,-34 392,-64 424,-64 424,-34 392,-34"/>
<text text-anchor="start" x="398" y="-45.2" font-family="PT Mono" font-size="16.00" fill="#000000">Ga</text>
<polygon fill="#fafaa2" stroke="transparent" points="424,-34 424,-64 456,-64 456,-34 424,-34"/>
<polygon fill="none" stroke="#000000" points="424,-34 424,-64 456,-64 456,-34 424,-34"/>
<text text-anchor="start" x="430" y="-45.2" font-family="PT Mono" font-size="16.00" fill="#000000">Ge</text>
<polygon fill="#fafaa2" stroke="transparent" points="456,-34 456,-64 488,-64 488,-34 456,-34"/>
<polygon fill="none" stroke="#000000" points="456,-34 456,-64 488,-64 488,-34 456,-34"/>
<text text-anchor="start" x="462" y="-45.2" font-family="PT Mono" font-size="16.00" fill="#000000">As</text>
<polygon fill="#fafaa2" stroke="transparent" points="488,-34 488,-64 520,-64 520,-34 488,-34"/>
<polygon fill="none" stroke="#000000" points="488,-34 488,-64 520,-64 520,-34 488,-34"/>
<text text-anchor="start" x="494" y="-45.2" font-family="PT Mono" font-size="16.00" fill="#000000">Se</text>
<polygon fill="#fafaa2" stroke="transparent" points="520,-34 520,-64 562,-64 562,-34 520,-34"/>
<polygon fill="none" stroke="#000000" points="520,-34 520,-64 562,-64 562,-34 520,-34"/>
<text text-anchor="start" x="531" y="-45.2" font-family="PT Mono" font-size="16.00" fill="#000000">Br</text>
<polygon fill="#fafaa2" stroke="transparent" points="562,-34 562,-64 594,-64 594,-34 562,-34"/>
<polygon fill="none" stroke="#000000" points="562,-34 562,-64 594,-64 594,-34 562,-34"/>
<text text-anchor="start" x="568" y="-45.2" font-family="PT Mono" font-size="16.00" fill="#000000">Kr</text>
<polygon fill="#ffbbaa" stroke="transparent" points="8,-4 8,-34 40,-34 40,-4 8,-4"/>
<polygon fill="none" stroke="#000000" points="8,-4 8,-34 40,-34 40,-4 8,-4"/>
<text text-anchor="start" x="14" y="-15.2" font-family="PT Mono" font-size="16.00" fill="#000000">Rb</text>
<polygon fill="#ffbbaa" stroke="transparent" points="40,-4 40,-34 72,-34 72,-4 40,-4"/>
<polygon fill="none" stroke="#000000" points="40,-4 40,-34 72,-34 72,-4 40,-4"/>
<text text-anchor="start" x="46" y="-15.2" font-family="PT Mono" font-size="16.00" fill="#000000">Sr</text>
<polygon fill="#c0daf5" stroke="transparent" points="72,-4 72,-34 104,-34 104,-4 72,-4"/>
<polygon fill="none" stroke="#000000" points="72,-4 72,-34 104,-34 104,-4 72,-4"/>
<text text-anchor="start" x="83" y="-15.2" font-family="PT Mono" font-size="16.00" fill="#000000">Y</text>
<polygon fill="#c0daf5" stroke="transparent" points="104,-4 104,-34 136,-34 136,-4 104,-4"/>
<polygon fill="none" stroke="#000000" points="104,-4 104,-34 136,-34 136,-4 104,-4"/>
<text text-anchor="start" x="110" y="-15.2" font-family="PT Mono" font-size="16.00" fill="#000000">Zr</text>
<polygon fill="#c0daf5" stroke="transparent" points="136,-4 136,-34 168,-34 168,-4 136,-4"/>
<polygon fill="none" stroke="#000000" points="136,-4 136,-34 168,-34 168,-4 136,-4"/>
<text text-anchor="start" x="142" y="-15.2" font-family="PT Mono" font-size="16.00" fill="#000000">Nb</text>
<polygon fill="#c0daf5" stroke="transparent" points="168,-4 168,-34 200,-34 200,-4 168,-4"/>
<polygon fill="none" stroke="#000000" points="168,-4 168,-34 200,-34 200,-4 168,-4"/>
<text text-anchor="start" x="174" y="-15.2" font-family="PT Mono" font-size="16.00" fill="#000000">Mo</text>
<polygon fill="#c0daf5" stroke="transparent" points="200,-4 200,-34 232,-34 232,-4 200,-4"/>
<polygon fill="none" stroke="#000000" points="200,-4 200,-34 232,-34 232,-4 200,-4"/>
<text text-anchor="start" x="206" y="-15.2" font-family="PT Mono" font-size="16.00" fill="#000000">Tc</text>
<polygon fill="#c0daf5" stroke="transparent" points="232,-4 232,-34 264,-34 264,-4 232,-4"/>
<polygon fill="none" stroke="#000000" points="232,-4 232,-34 264,-34 264,-4 232,-4"/>
<text text-anchor="start" x="238" y="-15.2" font-family="PT Mono" font-size="16.00" fill="#000000">Ru</text>
<polygon fill="#c0daf5" stroke="transparent" points="264,-4 264,-34 296,-34 296,-4 264,-4"/>
<polygon fill="none" stroke="#000000" points="264,-4 264,-34 296,-34 296,-4 264,-4"/>
<text text-anchor="start" x="270" y="-15.2" font-family="PT Mono" font-size="16.00" fill="#000000">Rh</text>
<polygon fill="#c0daf5" stroke="transparent" points="296,-4 296,-34 328,-34 328,-4 296,-4"/>
<polygon fill="none" stroke="#000000" points="296,-4 296,-34 328,-34 328,-4 296,-4"/>
<text text-anchor="start" x="302" y="-15.2" font-family="PT Mono" font-size="16.00" fill="#000000">Pd</text>
<polygon fill="#c0daf5" stroke="transparent" points="328,-4 328,-34 360,-34 360,-4 328,-4"/>
<polygon fill="none" stroke="#000000" points="328,-4 328,-34 360,-34 360,-4 328,-4"/>
<text text-anchor="start" x="334" y="-15.2" font-family="PT Mono" font-size="16.00" fill="#000000">Ag</text>
<polygon fill="#c0daf5" stroke="transparent" points="360,-4 360,-34 392,-34 392,-4 360,-4"/>
<polygon fill="none" stroke="#000000" points="360,-4 360,-34 392,-34 392,-4 360,-4"/>
<text text-anchor="start" x="366" y="-15.2" font-family="PT Mono" font-size="16.00" fill="#000000">Cd</text>
<polygon fill="#fafaa2" stroke="transparent" points="392,-4 392,-34 424,-34 424,-4 392,-4"/>
<polygon fill="none" stroke="#000000" points="392,-4 392,-34 424,-34 424,-4 392,-4"/>
<text text-anchor="start" x="398" y="-15.2" font-family="PT Mono" font-size="16.00" fill="#000000">In</text>
<polygon fill="#fafaa2" stroke="transparent" points="424,-4 424,-34 456,-34 456,-4 424,-4"/>
<polygon fill="none" stroke="#000000" points="424,-4 424,-34 456,-34 456,-4 424,-4"/>
<text text-anchor="start" x="430" y="-15.2" font-family="PT Mono" font-size="16.00" fill="#000000">Sn</text>
<polygon fill="#fafaa2" stroke="transparent" points="456,-4 456,-34 488,-34 488,-4 456,-4"/>
<polygon fill="none" stroke="#000000" points="456,-4 456,-34 488,-34 488,-4 456,-4"/>
<text text-anchor="start" x="462" y="-15.2" font-family="PT Mono" font-size="16.00" fill="#000000">Sb</text>
<polygon fill="#fafaa2" stroke="transparent" points="488,-4 488,-34 520,-34 520,-4 488,-4"/>
<polygon fill="none" stroke="#000000" points="488,-4 488,-34 520,-34 520,-4 488,-4"/>
<text text-anchor="start" x="494" y="-15.2" font-family="PT Mono" font-size="16.00" fill="#000000">Te</text>
<polygon fill="#fafaa2" stroke="transparent" points="520,-4 520,-34 562,-34 562,-4 520,-4"/>
<polygon fill="none" stroke="#000000" points="520,-4 520,-34 562,-34 562,-4 520,-4"/>
<text text-anchor="start" x="536" y="-15.2" font-family="PT Mono" font-size="16.00" fill="#000000">I</text>
<polygon fill="#fafaa2" stroke="transparent" points="562,-4 562,-34 594,-34 594,-4 562,-4"/>
<polygon fill="none" stroke="#000000" points="562,-4 562,-34 594,-34 594,-4 562,-4"/>
<text text-anchor="start" x="568" y="-15.2" font-family="PT Mono" font-size="16.00" fill="#000000">Xe</text>
</g>
</g>
</svg>
