<?xml version="1.0" encoding="UTF-8" standalone="no"?>
<!DOCTYPE svg PUBLIC "-//W3C//DTD SVG 1.1//EN"
 "http://www.w3.org/Graphics/SVG/1.1/DTD/svg11.dtd">
<!-- Generated by graphviz version 2.40.1 (20161225.0304)
 -->
<!-- Title: G Pages: 1 -->
<svg width="422pt" height="166pt"
 viewBox="0.00 0.00 422.00 166.00" xmlns="http://www.w3.org/2000/svg" xmlns:xlink="http://www.w3.org/1999/xlink">
<g id="graph0" class="graph" transform="scale(1 1) rotate(0) translate(4 162)">
<title>G</title>
<polygon fill="#ffffff" stroke="transparent" points="-4,4 -4,-162 418,-162 418,4 -4,4"/>
<!-- s -->
<g id="node1" class="node">
<title>s</title>
<polygon fill="none" stroke="#000000" points="54,-158 0,-158 0,-97 54,-97 54,-158"/>
<text text-anchor="middle" x="27" y="-115.6" font-family="PT Mono" font-size="48.00" fill="#000000">s</text>
</g>
<!-- string -->
<g id="node7" class="node">
<title>string</title>
<polygon fill="none" stroke="#000000" points="301,-61 113,-61 113,0 301,0 301,-61"/>
<text text-anchor="middle" x="207" y="-18.6" font-family="PT Mono" font-size="48.00" fill="#000000">string</text>
</g>
<!-- s&#45;&gt;string -->
<g id="edge1" class="edge">
<title>s&#45;&gt;string</title>
<path fill="none" stroke="#000000" d="M54.3301,-103.0719C57.1814,-100.914 60.0993,-98.8501 63,-97 81.1386,-85.4311 101.6177,-74.7299 121.3194,-65.4443"/>
<polygon fill="#000000" stroke="#000000" points="123.0063,-68.5202 130.609,-61.1412 120.0641,-62.1685 123.0063,-68.5202"/>
</g>
<!-- t -->
<g id="node2" class="node">
<title>t</title>
<polygon fill="none" stroke="#000000" points="126,-158 72,-158 72,-97 126,-97 126,-158"/>
<text text-anchor="middle" x="99" y="-115.6" font-family="PT Mono" font-size="48.00" fill="#000000">t</text>
</g>
<!-- t&#45;&gt;string -->
<g id="edge2" class="edge">
<title>t&#45;&gt;string</title>
<path fill="none" stroke="#000000" d="M126.253,-103.0228C138.0584,-92.4198 152.1456,-79.7674 165.2233,-68.0216"/>
<polygon fill="#000000" stroke="#000000" points="167.6807,-70.519 172.7818,-61.233 163.0032,-65.3112 167.6807,-70.519"/>
</g>
<!-- r -->
<g id="node3" class="node">
<title>r</title>
<polygon fill="none" stroke="#000000" points="198,-158 144,-158 144,-97 198,-97 198,-158"/>
<text text-anchor="middle" x="171" y="-115.6" font-family="PT Mono" font-size="48.00" fill="#000000">r</text>
</g>
<!-- r&#45;&gt;string -->
<g id="edge3" class="edge">
<title>r&#45;&gt;string</title>
<path fill="none" stroke="#000000" d="M182.3906,-96.8086C185.4438,-88.5819 188.7917,-79.5613 192.0077,-70.896"/>
<polygon fill="#000000" stroke="#000000" points="195.3617,-71.9177 195.5599,-61.3247 188.7991,-69.482 195.3617,-71.9177"/>
</g>
<!-- i -->
<g id="node4" class="node">
<title>i</title>
<polygon fill="#ffff00" stroke="#000000" points="270,-158 216,-158 216,-97 270,-97 270,-158"/>
<text text-anchor="middle" x="243" y="-115.6" font-family="PT Mono" font-size="48.00" fill="#000000">i</text>
</g>
<!-- i&#45;&gt;string -->
<g id="edge4" class="edge">
<title>i&#45;&gt;string</title>
<path fill="none" stroke="#000000" d="M231.6094,-96.8086C228.5562,-88.5819 225.2083,-79.5613 221.9923,-70.896"/>
<polygon fill="#000000" stroke="#000000" points="225.2009,-69.482 218.4401,-61.3247 218.6383,-71.9177 225.2009,-69.482"/>
</g>
<!-- n -->
<g id="node5" class="node">
<title>n</title>
<polygon fill="none" stroke="#000000" points="342,-158 288,-158 288,-97 342,-97 342,-158"/>
<text text-anchor="middle" x="315" y="-115.6" font-family="PT Mono" font-size="48.00" fill="#000000">n</text>
</g>
<!-- n&#45;&gt;string -->
<g id="edge5" class="edge">
<title>n&#45;&gt;string</title>
<path fill="none" stroke="#000000" d="M287.747,-103.0228C275.9416,-92.4198 261.8544,-79.7674 248.7767,-68.0216"/>
<polygon fill="#000000" stroke="#000000" points="250.9968,-65.3112 241.2182,-61.233 246.3193,-70.519 250.9968,-65.3112"/>
</g>
<!-- g -->
<g id="node6" class="node">
<title>g</title>
<polygon fill="none" stroke="#000000" points="414,-158 360,-158 360,-97 414,-97 414,-158"/>
<text text-anchor="middle" x="387" y="-115.6" font-family="PT Mono" font-size="48.00" fill="#000000">g</text>
</g>
<!-- g&#45;&gt;string -->
<g id="edge6" class="edge">
<title>g&#45;&gt;string</title>
<path fill="none" stroke="#000000" d="M359.6699,-103.0719C356.8186,-100.914 353.9007,-98.8501 351,-97 332.8614,-85.4311 312.3823,-74.7299 292.6806,-65.4443"/>
<polygon fill="#000000" stroke="#000000" points="293.9359,-62.1685 283.391,-61.1412 290.9937,-68.5202 293.9359,-62.1685"/>
</g>
</g>
</svg>
