<?xml version="1.0" encoding="UTF-8" standalone="no"?>
<!DOCTYPE svg PUBLIC "-//W3C//DTD SVG 1.1//EN"
 "http://www.w3.org/Graphics/SVG/1.1/DTD/svg11.dtd">
<!-- Generated by graphviz version 2.40.1 (20161225.0304)
 -->
<!-- Title: G Pages: 1 -->
<svg width="422pt" height="140pt"
 viewBox="0.00 0.00 422.00 140.00" xmlns="http://www.w3.org/2000/svg" xmlns:xlink="http://www.w3.org/1999/xlink">
<g id="graph0" class="graph" transform="scale(1 1) rotate(0) translate(4 136)">
<title>G</title>
<polygon fill="#ffffff" stroke="transparent" points="-4,4 -4,-136 418,-136 418,4 -4,4"/>
<!-- s -->
<g id="node1" class="node">
<title>s</title>
<polygon fill="none" stroke="#000000" points="54,-132 0,-132 0,-84 54,-84 54,-132"/>
<text text-anchor="middle" x="27" y="-99.2" font-family="PT Mono" font-size="36.00" fill="#000000">s</text>
</g>
<!-- string -->
<g id="node7" class="node">
<title>string</title>
<polygon fill="none" stroke="#000000" points="280.5,-48 133.5,-48 133.5,0 280.5,0 280.5,-48"/>
<text text-anchor="middle" x="207" y="-15.2" font-family="PT Mono" font-size="36.00" fill="#000000">string</text>
</g>
<!-- s&#45;&gt;string -->
<g id="edge1" class="edge">
<title>s&#45;&gt;string</title>
<path fill="none" stroke="#000000" d="M54.1799,-89.0918C57.1102,-87.292 60.086,-85.5595 63,-84 84.8341,-72.3148 109.4418,-61.3224 132.0563,-52.0187"/>
<polygon fill="#000000" stroke="#000000" points="133.6642,-55.1433 141.6123,-48.1376 131.0302,-48.6578 133.6642,-55.1433"/>
</g>
<!-- t -->
<g id="node2" class="node">
<title>t</title>
<polygon fill="none" stroke="#000000" points="126,-132 72,-132 72,-84 126,-84 126,-132"/>
<text text-anchor="middle" x="99" y="-99.2" font-family="PT Mono" font-size="36.00" fill="#000000">t</text>
</g>
<!-- t&#45;&gt;string -->
<g id="edge2" class="edge">
<title>t&#45;&gt;string</title>
<path fill="none" stroke="#000000" d="M126.253,-86.8033C138.8942,-76.9712 154.1517,-65.1042 167.9846,-54.3453"/>
<polygon fill="#000000" stroke="#000000" points="170.1892,-57.0647 175.934,-48.1625 165.8916,-51.5392 170.1892,-57.0647"/>
</g>
<!-- r -->
<g id="node3" class="node">
<title>r</title>
<polygon fill="none" stroke="#000000" points="198,-132 144,-132 144,-84 198,-84 198,-132"/>
<text text-anchor="middle" x="171" y="-99.2" font-family="PT Mono" font-size="36.00" fill="#000000">r</text>
</g>
<!-- r&#45;&gt;string -->
<g id="edge3" class="edge">
<title>r&#45;&gt;string</title>
<path fill="none" stroke="#000000" d="M181.4127,-83.7037C184.9202,-75.5196 188.8982,-66.2376 192.6545,-57.4729"/>
<polygon fill="#000000" stroke="#000000" points="195.8885,-58.8119 196.6107,-48.2417 189.4544,-56.0544 195.8885,-58.8119"/>
</g>
<!-- i -->
<g id="node4" class="node">
<title>i</title>
<polygon fill="#ffff00" stroke="#000000" points="270,-132 216,-132 216,-84 270,-84 270,-132"/>
<text text-anchor="middle" x="243" y="-99.2" font-family="PT Mono" font-size="36.00" fill="#000000">i</text>
</g>
<!-- i&#45;&gt;string -->
<g id="edge4" class="edge">
<title>i&#45;&gt;string</title>
<path fill="none" stroke="#000000" d="M232.5873,-83.7037C229.0798,-75.5196 225.1018,-66.2376 221.3455,-57.4729"/>
<polygon fill="#000000" stroke="#000000" points="224.5456,-56.0544 217.3893,-48.2417 218.1115,-58.8119 224.5456,-56.0544"/>
</g>
<!-- n -->
<g id="node5" class="node">
<title>n</title>
<polygon fill="none" stroke="#000000" points="342,-132 288,-132 288,-84 342,-84 342,-132"/>
<text text-anchor="middle" x="315" y="-99.2" font-family="PT Mono" font-size="36.00" fill="#000000">n</text>
</g>
<!-- n&#45;&gt;string -->
<g id="edge5" class="edge">
<title>n&#45;&gt;string</title>
<path fill="none" stroke="#000000" d="M287.747,-86.8033C275.1058,-76.9712 259.8483,-65.1042 246.0154,-54.3453"/>
<polygon fill="#000000" stroke="#000000" points="248.1084,-51.5392 238.066,-48.1625 243.8108,-57.0647 248.1084,-51.5392"/>
</g>
<!-- g -->
<g id="node6" class="node">
<title>g</title>
<polygon fill="none" stroke="#000000" points="414,-132 360,-132 360,-84 414,-84 414,-132"/>
<text text-anchor="middle" x="387" y="-99.2" font-family="PT Mono" font-size="36.00" fill="#000000">g</text>
</g>
<!-- g&#45;&gt;string -->
<g id="edge6" class="edge">
<title>g&#45;&gt;string</title>
<path fill="none" stroke="#000000" d="M359.8201,-89.0918C356.8898,-87.292 353.914,-85.5595 351,-84 329.1659,-72.3148 304.5582,-61.3224 281.9437,-52.0187"/>
<polygon fill="#000000" stroke="#000000" points="282.9698,-48.6578 272.3877,-48.1376 280.3358,-55.1433 282.9698,-48.6578"/>
</g>
</g>
</svg>
