<?xml version="1.0" encoding="UTF-8" standalone="no"?>
<!DOCTYPE svg PUBLIC "-//W3C//DTD SVG 1.1//EN"
 "http://www.w3.org/Graphics/SVG/1.1/DTD/svg11.dtd">
<!-- Generated by graphviz version 2.40.1 (20161225.0304)
 -->
<!-- Title: G Pages: 1 -->
<svg width="195pt" height="234pt"
 viewBox="0.00 0.00 195.00 234.00" xmlns="http://www.w3.org/2000/svg" xmlns:xlink="http://www.w3.org/1999/xlink">
<g id="graph0" class="graph" transform="scale(1 1) rotate(0) translate(4 230)">
<title>G</title>
<polygon fill="#ffffff" stroke="transparent" points="-4,4 -4,-230 191,-230 191,4 -4,4"/>
<!-- mice -->
<g id="node1" class="node">
<title>mice</title>
<polygon fill="#f5deb3" stroke="#000000" points="83,-37 0,-37 0,-6 83,-6 95,-21.5 83,-37"/>
<text text-anchor="middle" x="47.5" y="-13.4" font-family="PT Mono" font-size="32.00" fill="#000000">mice</text>
</g>
<!-- mice3 -->
<g id="node2" class="node">
<title>mice3</title>
<polygon fill="none" stroke="#000000" points="186,-43 132,-43 132,0 186,0 186,-43"/>
<text text-anchor="middle" x="159" y="-13.4" font-family="PT Mono" font-size="32.00" fill="#000000">3</text>
</g>
<!-- mice&#45;&gt;mice3 -->
<g id="edge1" class="edge">
<title>mice&#45;&gt;mice3</title>
<path fill="none" stroke="#000000" d="M95.1095,-21.5C104.0305,-21.5 113.2358,-21.5 121.7849,-21.5"/>
<polygon fill="#000000" stroke="#000000" points="121.8243,-25.0001 131.8243,-21.5 121.8243,-18.0001 121.8243,-25.0001"/>
</g>
<!-- dogs -->
<g id="node3" class="node">
<title>dogs</title>
<polygon fill="#f5deb3" stroke="#000000" points="83,-98 0,-98 0,-67 83,-67 95,-82.5 83,-98"/>
<text text-anchor="middle" x="47.5" y="-74.4" font-family="PT Mono" font-size="32.00" fill="#000000">dogs</text>
</g>
<!-- dogs3 -->
<g id="node4" class="node">
<title>dogs3</title>
<polygon fill="none" stroke="#000000" points="186,-104 132,-104 132,-61 186,-61 186,-104"/>
<text text-anchor="middle" x="159" y="-74.4" font-family="PT Mono" font-size="32.00" fill="#000000">3</text>
</g>
<!-- dogs&#45;&gt;dogs3 -->
<g id="edge2" class="edge">
<title>dogs&#45;&gt;dogs3</title>
<path fill="none" stroke="#000000" d="M95.1095,-82.5C104.0305,-82.5 113.2358,-82.5 121.7849,-82.5"/>
<polygon fill="#000000" stroke="#000000" points="121.8243,-86.0001 131.8243,-82.5 121.8243,-79.0001 121.8243,-86.0001"/>
</g>
<!-- none -->
<!-- cats3 -->
<g id="node6" class="node">
<title>cats3</title>
<polygon fill="none" stroke="#c0c0c0" points="186,-226 132,-226 132,-183 186,-183 186,-226"/>
<text text-anchor="middle" x="159" y="-196.4" font-family="PT Mono" font-size="32.00" fill="#c0c0c0">3</text>
</g>
<!-- none&#45;&gt;cats3 -->
<!-- cats -->
<g id="node7" class="node">
<title>cats</title>
<polygon fill="#f5deb3" stroke="#000000" points="83,-159 0,-159 0,-128 83,-128 95,-143.5 83,-159"/>
<text text-anchor="middle" x="47.5" y="-135.4" font-family="PT Mono" font-size="32.00" fill="#000000">cats</text>
</g>
<!-- cats&#45;&gt;cats3 -->
<!-- 15 -->
<g id="node8" class="node">
<title>15</title>
<polygon fill="none" stroke="#000000" points="187,-165 131,-165 131,-122 187,-122 187,-165"/>
<text text-anchor="middle" x="159" y="-135.4" font-family="PT Mono" font-size="32.00" fill="#000000">15</text>
</g>
<!-- cats&#45;&gt;15 -->
<g id="edge4" class="edge">
<title>cats&#45;&gt;15</title>
<path fill="none" stroke="#000000" d="M95.1095,-143.5C103.6828,-143.5 112.5186,-143.5 120.7823,-143.5"/>
<polygon fill="#000000" stroke="#000000" points="120.8808,-147.0001 130.8807,-143.5 120.8807,-140.0001 120.8808,-147.0001"/>
</g>
</g>
</svg>
