<?xml version="1.0" encoding="UTF-8" standalone="no"?>
<!DOCTYPE svg PUBLIC "-//W3C//DTD SVG 1.1//EN"
 "http://www.w3.org/Graphics/SVG/1.1/DTD/svg11.dtd">
<!-- Generated by graphviz version 2.40.1 (20161225.0304)
 -->
<!-- Title: G Pages: 1 -->
<svg width="193pt" height="173pt"
 viewBox="0.00 0.00 193.00 173.00" xmlns="http://www.w3.org/2000/svg" xmlns:xlink="http://www.w3.org/1999/xlink">
<g id="graph0" class="graph" transform="scale(1 1) rotate(0) translate(4 169)">
<title>G</title>
<polygon fill="#ffffff" stroke="transparent" points="-4,4 -4,-169 189,-169 189,4 -4,4"/>
<!-- mice -->
<g id="node1" class="node">
<title>mice</title>
<polygon fill="#f5deb3" stroke="#000000" points="83,-37 0,-37 0,-6 83,-6 95,-21.5 83,-37"/>
<text text-anchor="middle" x="47.5" y="-13.4" font-family="PT Mono" font-size="32.00" fill="#000000">mice</text>
</g>
<!-- mice3 -->
<g id="node2" class="node">
<title>mice3</title>
<polygon fill="none" stroke="#000000" points="185,-43 131,-43 131,0 185,0 185,-43"/>
<text text-anchor="middle" x="158" y="-13.4" font-family="PT Mono" font-size="32.00" fill="#000000">3</text>
</g>
<!-- mice&#45;&gt;mice3 -->
<g id="edge1" class="edge">
<title>mice&#45;&gt;mice3</title>
<path fill="none" stroke="#000000" d="M95.0032,-21.5C103.6403,-21.5 112.5351,-21.5 120.8206,-21.5"/>
<polygon fill="#000000" stroke="#000000" points="120.9245,-25.0001 130.9245,-21.5 120.9244,-18.0001 120.9245,-25.0001"/>
</g>
<!-- dogs -->
<g id="node3" class="node">
<title>dogs</title>
<polygon fill="#f5deb3" stroke="#000000" points="83,-98 0,-98 0,-67 83,-67 95,-82.5 83,-98"/>
<text text-anchor="middle" x="47.5" y="-74.4" font-family="PT Mono" font-size="32.00" fill="#000000">dogs</text>
</g>
<!-- dogs3 -->
<g id="node4" class="node">
<title>dogs3</title>
<polygon fill="none" stroke="#000000" points="185,-104 131,-104 131,-61 185,-61 185,-104"/>
<text text-anchor="middle" x="158" y="-74.4" font-family="PT Mono" font-size="32.00" fill="#000000">3</text>
</g>
<!-- dogs&#45;&gt;dogs3 -->
<g id="edge2" class="edge">
<title>dogs&#45;&gt;dogs3</title>
<path fill="none" stroke="#000000" d="M95.0032,-82.5C103.6403,-82.5 112.5351,-82.5 120.8206,-82.5"/>
<polygon fill="#000000" stroke="#000000" points="120.9245,-86.0001 130.9245,-82.5 120.9244,-79.0001 120.9245,-86.0001"/>
</g>
<!-- cats -->
<g id="node5" class="node">
<title>cats</title>
<polygon fill="#f5deb3" stroke="#000000" points="83,-159 0,-159 0,-128 83,-128 95,-143.5 83,-159"/>
<text text-anchor="middle" x="47.5" y="-135.4" font-family="PT Mono" font-size="32.00" fill="#000000">cats</text>
</g>
<!-- 3 -->
<g id="node6" class="node">
<title>3</title>
<polygon fill="none" stroke="#000000" points="185,-165 131,-165 131,-122 185,-122 185,-165"/>
<text text-anchor="middle" x="158" y="-135.4" font-family="PT Mono" font-size="32.00" fill="#000000">3</text>
</g>
<!-- cats&#45;&gt;3 -->
<g id="edge3" class="edge">
<title>cats&#45;&gt;3</title>
<path fill="none" stroke="#000000" d="M95.0032,-143.5C103.6403,-143.5 112.5351,-143.5 120.8206,-143.5"/>
<polygon fill="#000000" stroke="#000000" points="120.9245,-147.0001 130.9245,-143.5 120.9244,-140.0001 120.9245,-147.0001"/>
</g>
</g>
</svg>
