<?xml version="1.0" encoding="UTF-8" standalone="no"?>
<!DOCTYPE svg PUBLIC "-//W3C//DTD SVG 1.1//EN"
 "http://www.w3.org/Graphics/SVG/1.1/DTD/svg11.dtd">
<!-- Generated by graphviz version 2.40.1 (20161225.0304)
 -->
<!-- Title: G Pages: 1 -->
<svg width="292pt" height="112pt"
 viewBox="0.00 0.00 292.00 112.00" xmlns="http://www.w3.org/2000/svg" xmlns:xlink="http://www.w3.org/1999/xlink">
<g id="graph0" class="graph" transform="scale(1 1) rotate(0) translate(4 108)">
<title>G</title>
<polygon fill="#ffffff" stroke="transparent" points="-4,4 -4,-108 288,-108 288,4 -4,4"/>
<!-- name -->
<g id="node1" class="node">
<title>name</title>
<polygon fill="#f5deb3" stroke="#000000" points="83,-37 0,-37 0,-6 83,-6 95,-21.5 83,-37"/>
<text text-anchor="middle" x="47.5" y="-13.4" font-family="PT Mono" font-size="32.00" fill="#000000">name</text>
</g>
<!-- 42 -->
<g id="node2" class="node">
<title>42</title>
<polygon fill="none" stroke="#000000" points="235.5,-43 179.5,-43 179.5,0 235.5,0 235.5,-43"/>
<text text-anchor="middle" x="207.5" y="-13.4" font-family="PT Mono" font-size="32.00" fill="#000000">42</text>
</g>
<!-- name&#45;&gt;42 -->
<g id="edge1" class="edge">
<title>name&#45;&gt;42</title>
<path fill="none" stroke="#000000" d="M95.0721,-21.5C118.7698,-21.5 147.0372,-21.5 169.2994,-21.5"/>
<polygon fill="#000000" stroke="#000000" points="169.3826,-25.0001 179.3826,-21.5 169.3825,-18.0001 169.3826,-25.0001"/>
</g>
<!-- &#39;value&#39; -->
<g id="node3" class="node">
<title>&#39;value&#39;</title>
<polygon fill="none" stroke="#c0c0c0" points="284,-104 131,-104 131,-61 284,-61 284,-104"/>
<text text-anchor="middle" x="207.5" y="-74.4" font-family="PT Mono" font-size="32.00" fill="#c0c0c0">&#39;value&#39;</text>
</g>
<!-- none -->
<!-- none&#45;&gt;&#39;value&#39; -->
</g>
</svg>
